# MagicaVoxel @ Ephtracy

# group
o 

# material
mtllib pinching hand.mtl
usemtl palette

# normals
vn -1 0 0
vn 1 0 0
vn 0 0 1
vn 0 0 -1
vn 0 -1 0
vn 0 1 0

# texcoords
vt 0.0214844 0.5
vt 0.373047 0.5

# verts
v -0.7 0.5 -1.49012e-008
v -0.7 0.5 -0.3
v -0.7 0.7 -1.49012e-008
v -0.7 0.7 -0.3
v -0.6 0.4 -1.49012e-008
v -0.6 0.4 -0.3
v -0.6 0.5 0.1
v -0.6 0.5 -1.49012e-008
v -0.6 0.5 -0.3
v -0.6 0.5 -0.4
v -0.6 0.7 0.1
v -0.6 0.7 -1.49012e-008
v -0.6 0.7 -0.3
v -0.6 0.7 -0.4
v -0.6 0.8 -1.49012e-008
v -0.6 0.8 -0.3
v -0.3 0.4 -1.49012e-008
v -0.3 0.4 -0.2
v -0.3 0.5 -1.49012e-008
v -0.3 0.5 -0.2
v -0.2 0.3 -1.49012e-008
v -0.2 0.3 -0.2
v -0.2 0.4 -1.49012e-008
v -0.2 0.4 -0.2
v 0 0.2 -1.49012e-008
v 0 0.2 -0.2
v 0 0.3 -1.49012e-008
v 0 0.3 -0.2
v 0.1 0 -1.49012e-008
v 0.1 0 -0.1
v 0.1 0.2 -1.49012e-008
v 0.1 0.2 -0.1
v 0.3 0 -1.49012e-008
v 0.3 0 -0.1
v 0.3 0.2 -1.49012e-008
v 0.3 0.2 -0.1
v 0.3 0.4 -1.49012e-008
v 0.3 0.4 -0.2
v 0.3 0.5 -1.49012e-008
v 0.3 0.5 -0.2
v 0.4 0.2 -1.49012e-008
v 0.4 0.2 -0.1
v 0.4 0.4 -1.49012e-008
v 0.4 0.4 -0.1
v -0.4 0.4 -1.49012e-008
v -0.4 0.4 -0.3
v -0.4 0.5 0.1
v -0.4 0.5 -1.49012e-008
v -0.4 0.5 -0.3
v -0.4 0.5 -0.4
v -0.4 0.7 0.1
v -0.4 0.7 -1.49012e-008
v -0.4 0.7 -0.3
v -0.4 0.7 -0.4
v -0.4 0.8 -1.49012e-008
v -0.4 0.8 -0.3
v 0.1 0.2 -1.49012e-008
v 0.1 0.2 -0.1
v 0.1 0.2 -0.2
v 0.1 0.5 -1.49012e-008
v 0.1 0.5 -0.2
v 0.2 0 -1.49012e-008
v 0.2 0 -0.1
v 0.2 0.2 -1.49012e-008
v 0.2 0.2 -0.1
v 0.3 0.6 -1.49012e-008
v 0.3 0.6 -0.2
v 0.3 0.7 -1.49012e-008
v 0.3 0.7 -0.2
v 0.4 0 -1.49012e-008
v 0.4 0 -0.1
v 0.4 0.2 -1.49012e-008
v 0.4 0.2 -0.1
v 0.4 0.5 -1.49012e-008
v 0.4 0.5 -0.1
v 0.4 0.6 -1.49012e-008
v 0.4 0.6 -0.1
v 0.5 0.2 -1.49012e-008
v 0.5 0.2 -0.1
v 0.5 0.4 -0.1
v 0.5 0.4 -0.2
v 0.5 0.5 -1.49012e-008
v 0.5 0.5 -0.1
v 0.5 0.5 -0.2
v 0.5 0.5 -0.3
v 0.5 0.6 -0.2
v 0.5 0.6 -0.3
v 0.9 0.6 -0.2
v 0.9 0.6 -0.3
v 0.9 0.7 -0.2
v 0.9 0.7 -0.3
v 1 0.5 -0.1
v 1 0.5 -0.2
v 1 0.6 -0.1
v 1 0.6 -0.2
v -0.6 0.5 0.1
v -0.6 0.7 0.1
v -0.4 0.5 0.1
v -0.4 0.7 0.1
v -0.7 0.5 -1.49012e-008
v -0.7 0.7 -1.49012e-008
v -0.6 0.4 -1.49012e-008
v -0.6 0.5 -1.49012e-008
v -0.6 0.7 -1.49012e-008
v -0.6 0.8 -1.49012e-008
v -0.4 0.4 -1.49012e-008
v -0.4 0.5 -1.49012e-008
v -0.4 0.7 -1.49012e-008
v -0.4 0.8 -1.49012e-008
v -0.3 0.4 -1.49012e-008
v -0.3 0.5 -1.49012e-008
v -0.2 0.3 -1.49012e-008
v -0.2 0.4 -1.49012e-008
v 0 0.2 -1.49012e-008
v 0 0.3 -1.49012e-008
v 0.1 0 -1.49012e-008
v 0.1 0.2 -1.49012e-008
v 0.1 0.5 -1.49012e-008
v 0.2 0 -1.49012e-008
v 0.2 0.2 -1.49012e-008
v 0.3 0 -1.49012e-008
v 0.3 0.2 -1.49012e-008
v 0.3 0.4 -1.49012e-008
v 0.3 0.5 -1.49012e-008
v 0.3 0.6 -1.49012e-008
v 0.3 0.7 -1.49012e-008
v 0.4 0 -1.49012e-008
v 0.4 0.2 -1.49012e-008
v 0.4 0.4 -1.49012e-008
v 0.4 0.5 -1.49012e-008
v 0.4 0.6 -1.49012e-008
v 0.5 0.2 -1.49012e-008
v 0.5 0.5 -1.49012e-008
v 0.4 0.5 -0.1
v 0.4 0.6 -0.1
v 0.5 0.5 -0.1
v 1 0.5 -0.1
v 1 0.6 -0.1
v 0.3 0.6 -0.2
v 0.3 0.7 -0.2
v 0.9 0.6 -0.2
v 0.9 0.7 -0.2
v 0.1 0 -0.1
v 0.1 0.2 -0.1
v 0.2 0 -0.1
v 0.2 0.2 -0.1
v 0.3 0 -0.1
v 0.3 0.2 -0.1
v 0.4 0 -0.1
v 0.4 0.2 -0.1
v 0.4 0.4 -0.1
v 0.5 0.2 -0.1
v 0.5 0.4 -0.1
v -0.3 0.4 -0.2
v -0.3 0.5 -0.2
v -0.2 0.3 -0.2
v -0.2 0.4 -0.2
v 0 0.2 -0.2
v 0 0.3 -0.2
v 0.1 0.2 -0.2
v 0.1 0.5 -0.2
v 0.3 0.4 -0.2
v 0.3 0.5 -0.2
v 0.5 0.4 -0.2
v 0.5 0.5 -0.2
v 0.5 0.6 -0.2
v 0.9 0.6 -0.2
v 1 0.5 -0.2
v 1 0.6 -0.2
v -0.7 0.5 -0.3
v -0.7 0.7 -0.3
v -0.6 0.4 -0.3
v -0.6 0.5 -0.3
v -0.6 0.7 -0.3
v -0.6 0.8 -0.3
v -0.4 0.4 -0.3
v -0.4 0.5 -0.3
v -0.4 0.7 -0.3
v -0.4 0.8 -0.3
v 0.5 0.5 -0.3
v 0.5 0.6 -0.3
v 0.9 0.6 -0.3
v 0.9 0.7 -0.3
v -0.6 0.5 -0.4
v -0.6 0.7 -0.4
v -0.4 0.5 -0.4
v -0.4 0.7 -0.4
v 0.1 0 -1.49012e-008
v 0.2 0 -1.49012e-008
v 0.3 0 -1.49012e-008
v 0.4 0 -1.49012e-008
v 0.1 0 -0.1
v 0.2 0 -0.1
v 0.3 0 -0.1
v 0.4 0 -0.1
v 0 0.2 -1.49012e-008
v 0.1 0.2 -1.49012e-008
v 0.4 0.2 -1.49012e-008
v 0.5 0.2 -1.49012e-008
v 0.1 0.2 -0.1
v 0.4 0.2 -0.1
v 0.5 0.2 -0.1
v 0 0.2 -0.2
v 0.1 0.2 -0.2
v -0.2 0.3 -1.49012e-008
v 0 0.3 -1.49012e-008
v -0.2 0.3 -0.2
v 0 0.3 -0.2
v -0.6 0.4 -1.49012e-008
v -0.4 0.4 -1.49012e-008
v -0.3 0.4 -1.49012e-008
v -0.2 0.4 -1.49012e-008
v 0.3 0.4 -1.49012e-008
v 0.4 0.4 -1.49012e-008
v 0.4 0.4 -0.1
v 0.5 0.4 -0.1
v -0.3 0.4 -0.2
v -0.2 0.4 -0.2
v 0.3 0.4 -0.2
v 0.5 0.4 -0.2
v -0.6 0.4 -0.3
v -0.4 0.4 -0.3
v -0.6 0.5 0.1
v -0.4 0.5 0.1
v -0.7 0.5 -1.49012e-008
v -0.6 0.5 -1.49012e-008
v -0.4 0.5 -1.49012e-008
v -0.3 0.5 -1.49012e-008
v 0.1 0.5 -1.49012e-008
v 0.3 0.5 -1.49012e-008
v 0.5 0.5 -0.1
v 1 0.5 -0.1
v -0.3 0.5 -0.2
v 0.1 0.5 -0.2
v 0.3 0.5 -0.2
v 0.5 0.5 -0.2
v 1 0.5 -0.2
v -0.7 0.5 -0.3
v -0.6 0.5 -0.3
v -0.4 0.5 -0.3
v 0.5 0.5 -0.3
v -0.6 0.5 -0.4
v -0.4 0.5 -0.4
v 0.5 0.6 -0.2
v 0.9 0.6 -0.2
v 0.5 0.6 -0.3
v 0.9 0.6 -0.3
v 0.1 0.2 -1.49012e-008
v 0.2 0.2 -1.49012e-008
v 0.3 0.2 -1.49012e-008
v 0.4 0.2 -1.49012e-008
v 0.1 0.2 -0.1
v 0.2 0.2 -0.1
v 0.3 0.2 -0.1
v 0.4 0.2 -0.1
v 0.4 0.5 -1.49012e-008
v 0.5 0.5 -1.49012e-008
v 0.4 0.5 -0.1
v 0.5 0.5 -0.1
v 0.3 0.6 -1.49012e-008
v 0.4 0.6 -1.49012e-008
v 0.4 0.6 -0.1
v 1 0.6 -0.1
v 0.3 0.6 -0.2
v 0.9 0.6 -0.2
v 1 0.6 -0.2
v -0.6 0.7 0.1
v -0.4 0.7 0.1
v -0.7 0.7 -1.49012e-008
v -0.6 0.7 -1.49012e-008
v -0.4 0.7 -1.49012e-008
v 0.3 0.7 -1.49012e-008
v 0.3 0.7 -0.2
v 0.9 0.7 -0.2
v -0.7 0.7 -0.3
v -0.6 0.7 -0.3
v -0.4 0.7 -0.3
v 0.9 0.7 -0.3
v -0.6 0.7 -0.4
v -0.4 0.7 -0.4
v -0.6 0.8 -1.49012e-008
v -0.4 0.8 -1.49012e-008
v -0.6 0.8 -0.3
v -0.4 0.8 -0.3

# faces
f 3/2/1 2/2/1 1/2/1
f 4/2/1 2/2/1 3/2/1
f 8/1/1 6/1/1 5/1/1
f 9/1/1 6/1/1 8/1/1
f 11/1/1 8/1/1 7/1/1
f 12/1/1 8/1/1 11/1/1
f 13/1/1 10/1/1 9/1/1
f 14/1/1 10/1/1 13/1/1
f 15/1/1 13/1/1 12/1/1
f 16/1/1 13/1/1 15/1/1
f 19/2/1 18/2/1 17/2/1
f 20/2/1 18/2/1 19/2/1
f 23/2/1 22/2/1 21/2/1
f 24/2/1 22/2/1 23/2/1
f 27/2/1 26/2/1 25/2/1
f 28/2/1 26/2/1 27/2/1
f 31/2/1 30/2/1 29/2/1
f 32/2/1 30/2/1 31/2/1
f 35/2/1 34/2/1 33/2/1
f 36/2/1 34/2/1 35/2/1
f 39/2/1 38/2/1 37/2/1
f 40/2/1 38/2/1 39/2/1
f 43/2/1 42/2/1 41/2/1
f 44/2/1 42/2/1 43/2/1
f 45/1/2 46/1/2 48/1/2
f 48/1/2 46/1/2 49/1/2
f 47/1/2 48/1/2 51/1/2
f 51/1/2 48/1/2 52/1/2
f 49/1/2 50/1/2 53/1/2
f 53/1/2 50/1/2 54/1/2
f 52/1/2 53/1/2 55/1/2
f 55/1/2 53/1/2 56/1/2
f 57/2/2 58/2/2 60/2/2
f 58/2/2 59/2/2 60/2/2
f 60/2/2 59/2/2 61/2/2
f 62/2/2 63/2/2 64/2/2
f 64/2/2 63/2/2 65/2/2
f 66/2/2 67/2/2 68/2/2
f 68/2/2 67/2/2 69/2/2
f 70/2/2 71/2/2 72/2/2
f 72/2/2 71/2/2 73/2/2
f 74/2/2 75/2/2 76/2/2
f 76/2/2 75/2/2 77/2/2
f 78/2/2 79/2/2 80/2/2
f 78/2/2 80/2/2 82/2/2
f 80/2/2 81/2/2 82/2/2
f 82/2/2 81/2/2 83/2/2
f 83/2/2 81/2/2 84/2/2
f 84/2/2 85/2/2 86/2/2
f 86/2/2 85/2/2 87/2/2
f 88/2/2 89/2/2 90/2/2
f 90/2/2 89/2/2 91/2/2
f 92/2/2 93/2/2 94/2/2
f 94/2/2 93/2/2 95/2/2
f 98/1/3 97/1/3 96/1/3
f 99/1/3 97/1/3 98/1/3
f 103/2/3 101/2/3 100/2/3
f 104/2/3 101/2/3 103/2/3
f 106/1/3 103/1/3 102/1/3
f 107/1/3 103/1/3 106/1/3
f 108/1/3 105/1/3 104/1/3
f 109/1/3 105/1/3 108/1/3
f 111/2/3 108/2/3 107/2/3
f 113/2/3 111/2/3 110/2/3
f 115/2/3 113/2/3 112/2/3
f 117/2/3 115/2/3 114/2/3
f 118/2/3 108/2/3 111/2/3
f 118/2/3 111/2/3 113/2/3
f 118/2/3 115/2/3 117/2/3
f 118/2/3 113/2/3 115/2/3
f 119/2/3 117/2/3 116/2/3
f 120/2/3 117/2/3 119/2/3
f 124/2/3 108/2/3 118/2/3
f 125/2/3 108/2/3 124/2/3
f 126/2/3 108/2/3 125/2/3
f 127/2/3 122/2/3 121/2/3
f 128/2/3 122/2/3 127/2/3
f 129/2/3 124/2/3 123/2/3
f 129/2/3 125/2/3 124/2/3
f 130/2/3 125/2/3 129/2/3
f 131/2/3 125/2/3 130/2/3
f 132/2/3 129/2/3 128/2/3
f 132/2/3 130/2/3 129/2/3
f 133/2/3 130/2/3 132/2/3
f 136/2/3 135/2/3 134/2/3
f 137/2/3 135/2/3 136/2/3
f 138/2/3 135/2/3 137/2/3
f 141/2/3 140/2/3 139/2/3
f 142/2/3 140/2/3 141/2/3
f 143/2/4 144/2/4 145/2/4
f 145/2/4 144/2/4 146/2/4
f 147/2/4 148/2/4 149/2/4
f 149/2/4 148/2/4 150/2/4
f 150/2/4 151/2/4 152/2/4
f 152/2/4 151/2/4 153/2/4
f 154/2/4 155/2/4 157/2/4
f 156/2/4 157/2/4 159/2/4
f 158/2/4 159/2/4 160/2/4
f 157/2/4 155/2/4 161/2/4
f 160/2/4 159/2/4 161/2/4
f 159/2/4 157/2/4 161/2/4
f 162/2/4 163/2/4 164/2/4
f 164/2/4 163/2/4 165/2/4
f 165/2/4 166/2/4 167/2/4
f 165/2/4 167/2/4 168/2/4
f 168/2/4 167/2/4 169/2/4
f 170/2/4 171/2/4 173/2/4
f 173/2/4 171/2/4 174/2/4
f 172/1/4 173/1/4 176/1/4
f 176/1/4 173/1/4 177/1/4
f 174/1/4 175/1/4 178/1/4
f 178/1/4 175/1/4 179/1/4
f 177/2/4 178/2/4 180/2/4
f 180/2/4 178/2/4 181/2/4
f 181/2/4 178/2/4 182/2/4
f 182/2/4 178/2/4 183/2/4
f 184/1/4 185/1/4 186/1/4
f 186/1/4 185/1/4 187/1/4
f 192/2/5 189/2/5 188/2/5
f 193/2/5 189/2/5 192/2/5
f 194/2/5 191/2/5 190/2/5
f 195/2/5 191/2/5 194/2/5
f 200/2/5 197/2/5 196/2/5
f 201/2/5 199/2/5 198/2/5
f 202/2/5 199/2/5 201/2/5
f 203/2/5 200/2/5 196/2/5
f 204/2/5 200/2/5 203/2/5
f 207/2/5 206/2/5 205/2/5
f 208/2/5 206/2/5 207/2/5
f 215/2/5 214/2/5 213/2/5
f 217/2/5 212/2/5 211/2/5
f 218/2/5 212/2/5 217/2/5
f 219/2/5 216/2/5 215/2/5
f 219/2/5 215/2/5 213/2/5
f 220/2/5 216/2/5 219/2/5
f 221/1/5 210/1/5 209/1/5
f 222/1/5 210/1/5 221/1/5
f 226/1/5 224/1/5 223/1/5
f 227/1/5 224/1/5 226/1/5
f 233/2/5 228/2/5 227/2/5
f 234/2/5 230/2/5 229/2/5
f 235/2/5 230/2/5 234/2/5
f 236/2/5 232/2/5 231/2/5
f 237/2/5 232/2/5 236/2/5
f 238/2/5 226/2/5 225/2/5
f 239/2/5 226/2/5 238/2/5
f 240/2/5 233/2/5 227/2/5
f 240/2/5 235/2/5 234/2/5
f 240/2/5 234/2/5 233/2/5
f 240/2/5 236/2/5 235/2/5
f 241/2/5 236/2/5 240/2/5
f 242/1/5 240/1/5 239/1/5
f 243/1/5 240/1/5 242/1/5
f 246/2/5 245/2/5 244/2/5
f 247/2/5 245/2/5 246/2/5
f 248/2/6 249/2/6 252/2/6
f 252/2/6 249/2/6 253/2/6
f 250/2/6 251/2/6 254/2/6
f 254/2/6 251/2/6 255/2/6
f 256/2/6 257/2/6 258/2/6
f 258/2/6 257/2/6 259/2/6
f 260/2/6 261/2/6 262/2/6
f 260/2/6 262/2/6 264/2/6
f 262/2/6 263/2/6 264/2/6
f 264/2/6 263/2/6 265/2/6
f 265/2/6 263/2/6 266/2/6
f 267/1/6 268/1/6 270/1/6
f 270/1/6 268/1/6 271/1/6
f 271/2/6 272/2/6 273/2/6
f 269/2/6 270/2/6 275/2/6
f 275/2/6 270/2/6 276/2/6
f 273/2/6 274/2/6 277/2/6
f 271/2/6 273/2/6 277/2/6
f 277/2/6 274/2/6 278/2/6
f 276/1/6 277/1/6 279/1/6
f 279/1/6 277/1/6 280/1/6
f 281/1/6 282/1/6 283/1/6
f 283/1/6 282/1/6 284/1/6
