# MagicaVoxel @ Ephtracy

# group
o 

# material
mtllib fat-man.mtl
usemtl palette

# normals
vn -1 0 0
vn 1 0 0
vn 0 0 1
vn 0 0 -1
vn 0 -1 0
vn 0 1 0

# texcoords
vt 0.0410156 0.5
vt 0.369141 0.5
vt 0.841797 0.5
vt 0.994141 0.5

# verts
v 0.9 3.6 -1.8
v 0.9 3.6 -1.9
v 0.9 3.7 -1.8
v 0.9 3.7 -1.9
v 1 3.6 -1.7
v 1 3.6 -1.8
v 1 3.7 -1.7
v 1 3.7 -1.8
v 1.4 2.9 -1.7
v 1.4 2.9 -2
v 1.4 3.1 -1.7
v 1.4 3.1 -2
v 1.4 3.2 -1.7
v 1.4 3.2 -2
v 1.4 3.3 -1.7
v 1.4 3.3 -2
v 1.5 2.9 -1.6
v 1.5 2.9 -1.7
v 1.5 2.9 -2
v 1.5 2.9 -2.1
v 1.5 3.1 -1.6
v 1.5 3.1 -1.7
v 1.5 3.1 -2
v 1.5 3.1 -2.1
v 1.5 3.2 -1.6
v 1.5 3.2 -1.7
v 1.5 3.2 -2
v 1.5 3.2 -2.1
v 1.5 3.3 -1.6
v 1.5 3.3 -1.7
v 1.5 3.3 -2
v 1.5 3.3 -2.1
v 1.5 3.5 -1.7
v 1.5 3.5 -2
v 1.6 2.9 -1.5
v 1.6 2.9 -1.6
v 1.6 3.1 -1.5
v 1.6 3.1 -1.6
v 1.6 3.2 -1.5
v 1.6 3.2 -1.6
v 1.6 3.3 -1.5
v 1.6 3.3 -1.6
v 1.6 3.3 -1.7
v 1.6 3.5 -1.7
v 1.6 3.5 -2
v 1.6 3.6 -1.6
v 1.6 3.6 -1.8
v 1.6 3.6 -1.9
v 1.6 3.6 -2
v 1.7 2 -1.6
v 1.7 2 -1.9
v 1.7 2.2 -1.6
v 1.7 2.2 -1.8
v 1.7 2.5 -1.7
v 1.7 2.5 -1.8
v 1.7 2.6 -1.7
v 1.7 2.6 -1.8
v 1.7 2.7 -1.8
v 1.7 2.7 -1.9
v 1.7 2.9 -1.8
v 1.7 2.9 -1.9
v 1.7 3.6 -1.6
v 1.7 3.6 -1.8
v 1.7 3.6 -1.9
v 1.7 3.6 -2
v 1.7 3.7 -1.6
v 1.7 3.7 -1.8
v 1.7 3.7 -1.9
v 1.7 3.7 -2
v 1.7 3.8 -1.6
v 1.7 3.8 -1.8
v 1.7 3.8 -2
v 1.7 4 -1.6
v 1.7 4 -1.7
v 1.7 4 -1.8
v 1.7 4.1 -1.7
v 1.7 4.1 -2
v 1.8 3.8 -2
v 1.8 3.8 -2.1
v 1.8 4 -1.6
v 1.8 4 -1.7
v 1.8 4.1 -1.6
v 1.8 4.1 -1.7
v 1.8 4.1 -2
v 1.8 4.1 -2.1
v 1.8 4.2 -1.6
v 1.8 4.2 -2
v 1.9 3.7 -1.8
v 1.9 3.7 -1.9
v 1.9 3.8 -1.8
v 1.9 3.8 -1.9
v 1.9 4.1 -2
v 1.9 4.1 -2.1
v 1.9 4.2 -1.6
v 1.9 4.2 -2
v 1.9 4.2 -2.1
v 1.9 4.3 -1.6
v 1.9 4.3 -2
v 2.1 2 -1.6
v 2.1 2 -1.9
v 2.1 2.2 -1.6
v 2.1 2.2 -1.8
v 2.1 2.5 -1.7
v 2.1 2.5 -1.8
v 2.1 2.6 -1.7
v 2.1 2.6 -1.8
v 2.1 2.7 -1.8
v 2.1 2.7 -1.9
v 2.1 2.9 -1.8
v 2.1 2.9 -1.9
v 2.1 2.9 -2
v 2.1 2.9 -2.1
v 2.1 3.1 -2
v 2.1 3.1 -2.1
v 2.1 3.2 -2
v 2.1 3.2 -2.1
v 2.1 3.3 -2
v 2.1 3.3 -2.1
v 2.8 3.6 -1.7
v 2.8 3.6 -1.8
v 2.8 3.7 -1.7
v 2.8 3.7 -1.8
v 1.2 3.6 -1.7
v 1.2 3.6 -1.8
v 1.2 3.7 -1.7
v 1.2 3.7 -1.8
v 1.9 2 -1.6
v 1.9 2 -1.9
v 1.9 2.2 -1.6
v 1.9 2.2 -1.8
v 1.9 2.5 -1.7
v 1.9 2.5 -1.8
v 1.9 2.6 -1.7
v 1.9 2.6 -1.8
v 1.9 2.7 -1.8
v 1.9 2.7 -1.9
v 1.9 2.9 -1.8
v 1.9 2.9 -1.9
v 1.9 2.9 -2
v 1.9 2.9 -2.1
v 1.9 3.1 -2
v 1.9 3.1 -2.1
v 1.9 3.2 -2
v 1.9 3.2 -2.1
v 1.9 3.3 -2
v 1.9 3.3 -2.1
v 2.1 3.7 -1.8
v 2.1 3.7 -1.9
v 2.1 3.8 -1.8
v 2.1 3.8 -1.9
v 2.1 4.1 -2
v 2.1 4.1 -2.1
v 2.1 4.2 -1.6
v 2.1 4.2 -2
v 2.1 4.2 -2.1
v 2.1 4.3 -1.6
v 2.1 4.3 -2
v 2.2 3.8 -2
v 2.2 3.8 -2.1
v 2.2 4 -1.6
v 2.2 4 -1.7
v 2.2 4.1 -1.6
v 2.2 4.1 -1.7
v 2.2 4.1 -2
v 2.2 4.1 -2.1
v 2.2 4.2 -1.6
v 2.2 4.2 -2
v 2.3 2 -1.6
v 2.3 2 -1.9
v 2.3 2.2 -1.6
v 2.3 2.2 -1.8
v 2.3 2.5 -1.7
v 2.3 2.5 -1.8
v 2.3 2.6 -1.7
v 2.3 2.6 -1.8
v 2.3 2.7 -1.8
v 2.3 2.7 -1.9
v 2.3 2.9 -1.8
v 2.3 2.9 -1.9
v 2.3 3.6 -1.6
v 2.3 3.6 -1.8
v 2.3 3.6 -1.9
v 2.3 3.6 -2
v 2.3 3.7 -1.6
v 2.3 3.7 -1.8
v 2.3 3.7 -1.9
v 2.3 3.7 -2
v 2.3 3.8 -1.6
v 2.3 3.8 -1.8
v 2.3 3.8 -2
v 2.3 4 -1.6
v 2.3 4 -1.7
v 2.3 4 -1.8
v 2.3 4.1 -1.7
v 2.3 4.1 -2
v 2.4 2.9 -1.5
v 2.4 2.9 -1.6
v 2.4 3.1 -1.5
v 2.4 3.1 -1.6
v 2.4 3.2 -1.5
v 2.4 3.2 -1.6
v 2.4 3.3 -1.5
v 2.4 3.3 -1.6
v 2.4 3.3 -1.7
v 2.4 3.5 -1.7
v 2.4 3.5 -2
v 2.4 3.6 -1.6
v 2.4 3.6 -1.8
v 2.4 3.6 -1.9
v 2.4 3.6 -2
v 2.5 2.9 -1.6
v 2.5 2.9 -1.7
v 2.5 2.9 -2
v 2.5 2.9 -2.1
v 2.5 3.1 -1.6
v 2.5 3.1 -1.7
v 2.5 3.1 -2
v 2.5 3.1 -2.1
v 2.5 3.2 -1.6
v 2.5 3.2 -1.7
v 2.5 3.2 -2
v 2.5 3.2 -2.1
v 2.5 3.3 -1.6
v 2.5 3.3 -1.7
v 2.5 3.3 -2
v 2.5 3.3 -2.1
v 2.5 3.5 -1.7
v 2.5 3.5 -2
v 2.6 2.9 -1.7
v 2.6 2.9 -2
v 2.6 3.1 -1.7
v 2.6 3.1 -2
v 2.6 3.2 -1.7
v 2.6 3.2 -2
v 2.6 3.3 -1.7
v 2.6 3.3 -2
v 3 3.6 -1.7
v 3 3.6 -1.8
v 3 3.7 -1.7
v 3 3.7 -1.8
v 3.1 3.6 -1.8
v 3.1 3.6 -1.9
v 3.1 3.7 -1.8
v 3.1 3.7 -1.9
v 1.6 2.9 -1.5
v 1.6 3.1 -1.5
v 1.6 3.2 -1.5
v 1.6 3.3 -1.5
v 2.4 2.9 -1.5
v 2.4 3.1 -1.5
v 2.4 3.2 -1.5
v 2.4 3.3 -1.5
v 1.5 2.9 -1.6
v 1.5 3.1 -1.6
v 1.5 3.2 -1.6
v 1.5 3.3 -1.6
v 1.6 2.9 -1.6
v 1.6 3.1 -1.6
v 1.6 3.2 -1.6
v 1.6 3.3 -1.6
v 1.6 3.6 -1.6
v 1.7 2 -1.6
v 1.7 2.2 -1.6
v 1.7 3.6 -1.6
v 1.7 3.7 -1.6
v 1.7 3.8 -1.6
v 1.7 4 -1.6
v 1.8 4 -1.6
v 1.8 4.1 -1.6
v 1.8 4.2 -1.6
v 1.9 2 -1.6
v 1.9 2.2 -1.6
v 1.9 4.1 -1.6
v 1.9 4.2 -1.6
v 1.9 4.3 -1.6
v 2.1 2 -1.6
v 2.1 2.2 -1.6
v 2.1 4.1 -1.6
v 2.1 4.2 -1.6
v 2.1 4.3 -1.6
v 2.2 4 -1.6
v 2.2 4.1 -1.6
v 2.2 4.2 -1.6
v 2.3 2 -1.6
v 2.3 2.2 -1.6
v 2.3 3.6 -1.6
v 2.3 3.7 -1.6
v 2.3 3.8 -1.6
v 2.3 4 -1.6
v 2.4 2.9 -1.6
v 2.4 3.1 -1.6
v 2.4 3.2 -1.6
v 2.4 3.3 -1.6
v 2.4 3.6 -1.6
v 2.5 2.9 -1.6
v 2.5 3.1 -1.6
v 2.5 3.2 -1.6
v 2.5 3.3 -1.6
v 1 3.6 -1.7
v 1 3.7 -1.7
v 1.2 3.6 -1.7
v 1.2 3.7 -1.7
v 1.4 2.9 -1.7
v 1.4 3.1 -1.7
v 1.4 3.2 -1.7
v 1.4 3.3 -1.7
v 1.5 2.9 -1.7
v 1.5 3.1 -1.7
v 1.5 3.2 -1.7
v 1.5 3.3 -1.7
v 1.5 3.5 -1.7
v 1.6 3.3 -1.7
v 1.6 3.5 -1.7
v 1.7 2.5 -1.7
v 1.7 2.6 -1.7
v 1.7 4 -1.7
v 1.7 4.1 -1.7
v 1.8 4 -1.7
v 1.8 4.1 -1.7
v 1.9 2.5 -1.7
v 1.9 2.6 -1.7
v 2.1 2.5 -1.7
v 2.1 2.6 -1.7
v 2.2 4 -1.7
v 2.2 4.1 -1.7
v 2.3 2.5 -1.7
v 2.3 2.6 -1.7
v 2.3 4 -1.7
v 2.3 4.1 -1.7
v 2.4 3.3 -1.7
v 2.4 3.5 -1.7
v 2.5 2.9 -1.7
v 2.5 3.1 -1.7
v 2.5 3.2 -1.7
v 2.5 3.3 -1.7
v 2.5 3.5 -1.7
v 2.6 2.9 -1.7
v 2.6 3.1 -1.7
v 2.6 3.2 -1.7
v 2.6 3.3 -1.7
v 2.8 3.6 -1.7
v 2.8 3.7 -1.7
v 3 3.6 -1.7
v 3 3.7 -1.7
v 0.9 3.6 -1.8
v 0.9 3.7 -1.8
v 1 3.6 -1.8
v 1 3.7 -1.8
v 1.2 3.6 -1.8
v 1.2 3.7 -1.8
v 1.6 3.6 -1.8
v 1.7 2.2 -1.8
v 1.7 2.5 -1.8
v 1.7 2.6 -1.8
v 1.7 2.7 -1.8
v 1.7 2.9 -1.8
v 1.7 3.6 -1.8
v 1.7 3.7 -1.8
v 1.9 2.2 -1.8
v 1.9 2.5 -1.8
v 1.9 2.6 -1.8
v 1.9 2.7 -1.8
v 1.9 2.9 -1.8
v 1.9 3.7 -1.8
v 1.9 3.8 -1.8
v 2.1 2.2 -1.8
v 2.1 2.5 -1.8
v 2.1 2.6 -1.8
v 2.1 2.7 -1.8
v 2.1 2.9 -1.8
v 2.1 3.7 -1.8
v 2.1 3.8 -1.8
v 2.3 2.2 -1.8
v 2.3 2.5 -1.8
v 2.3 2.6 -1.8
v 2.3 2.7 -1.8
v 2.3 2.9 -1.8
v 2.3 3.6 -1.8
v 2.3 3.7 -1.8
v 2.4 3.6 -1.8
v 2.8 3.6 -1.8
v 2.8 3.7 -1.8
v 3 3.6 -1.8
v 3 3.7 -1.8
v 3.1 3.6 -1.8
v 3.1 3.7 -1.8
v 0.9 3.6 -1.9
v 0.9 3.7 -1.9
v 1.6 3.6 -1.9
v 1.7 2 -1.9
v 1.7 2.7 -1.9
v 1.7 2.9 -1.9
v 1.7 3.6 -1.9
v 1.7 3.7 -1.9
v 1.9 2 -1.9
v 1.9 2.7 -1.9
v 1.9 2.9 -1.9
v 1.9 3.7 -1.9
v 1.9 3.8 -1.9
v 2.1 2 -1.9
v 2.1 2.7 -1.9
v 2.1 2.9 -1.9
v 2.1 3.7 -1.9
v 2.1 3.8 -1.9
v 2.3 2 -1.9
v 2.3 2.7 -1.9
v 2.3 2.9 -1.9
v 2.3 3.6 -1.9
v 2.3 3.7 -1.9
v 2.4 3.6 -1.9
v 3.1 3.6 -1.9
v 3.1 3.7 -1.9
v 1.4 2.9 -2
v 1.4 3.1 -2
v 1.4 3.2 -2
v 1.4 3.3 -2
v 1.5 2.9 -2
v 1.5 3.1 -2
v 1.5 3.2 -2
v 1.5 3.3 -2
v 1.5 3.5 -2
v 1.6 3.5 -2
v 1.6 3.6 -2
v 1.7 3.6 -2
v 1.7 3.7 -2
v 1.7 3.8 -2
v 1.7 4.1 -2
v 1.8 3.8 -2
v 1.8 4.1 -2
v 1.8 4.2 -2
v 1.9 2.9 -2
v 1.9 3.1 -2
v 1.9 3.2 -2
v 1.9 3.3 -2
v 1.9 4.1 -2
v 1.9 4.2 -2
v 1.9 4.3 -2
v 2.1 2.9 -2
v 2.1 3.1 -2
v 2.1 3.2 -2
v 2.1 3.3 -2
v 2.1 4.1 -2
v 2.1 4.2 -2
v 2.1 4.3 -2
v 2.2 3.8 -2
v 2.2 4.1 -2
v 2.2 4.2 -2
v 2.3 3.6 -2
v 2.3 3.7 -2
v 2.3 3.8 -2
v 2.3 4.1 -2
v 2.4 3.5 -2
v 2.4 3.6 -2
v 2.5 2.9 -2
v 2.5 3.1 -2
v 2.5 3.2 -2
v 2.5 3.3 -2
v 2.5 3.5 -2
v 2.6 2.9 -2
v 2.6 3.1 -2
v 2.6 3.2 -2
v 2.6 3.3 -2
v 1.5 2.9 -2.1
v 1.5 3.1 -2.1
v 1.5 3.2 -2.1
v 1.5 3.3 -2.1
v 1.8 3.8 -2.1
v 1.8 4.1 -2.1
v 1.9 2.9 -2.1
v 1.9 3.1 -2.1
v 1.9 3.2 -2.1
v 1.9 3.3 -2.1
v 1.9 4.1 -2.1
v 1.9 4.2 -2.1
v 2.1 2.9 -2.1
v 2.1 3.1 -2.1
v 2.1 3.2 -2.1
v 2.1 3.3 -2.1
v 2.1 4.1 -2.1
v 2.1 4.2 -2.1
v 2.2 3.8 -2.1
v 2.2 4.1 -2.1
v 2.5 2.9 -2.1
v 2.5 3.1 -2.1
v 2.5 3.2 -2.1
v 2.5 3.3 -2.1
v 1.7 2 -1.6
v 1.9 2 -1.6
v 2.1 2 -1.6
v 2.3 2 -1.6
v 1.7 2 -1.9
v 1.9 2 -1.9
v 2.1 2 -1.9
v 2.3 2 -1.9
v 1.7 2.5 -1.7
v 1.9 2.5 -1.7
v 2.1 2.5 -1.7
v 2.3 2.5 -1.7
v 1.7 2.5 -1.8
v 1.9 2.5 -1.8
v 2.1 2.5 -1.8
v 2.3 2.5 -1.8
v 1.6 2.9 -1.5
v 2.4 2.9 -1.5
v 1.5 2.9 -1.6
v 1.6 2.9 -1.6
v 2.4 2.9 -1.6
v 2.5 2.9 -1.6
v 1.4 2.9 -1.7
v 1.5 2.9 -1.7
v 2.5 2.9 -1.7
v 2.6 2.9 -1.7
v 1.7 2.9 -1.8
v 1.9 2.9 -1.8
v 2.1 2.9 -1.8
v 2.3 2.9 -1.8
v 1.7 2.9 -1.9
v 1.9 2.9 -1.9
v 2.1 2.9 -1.9
v 2.3 2.9 -1.9
v 1.4 2.9 -2
v 1.5 2.9 -2
v 1.9 2.9 -2
v 2.1 2.9 -2
v 2.5 2.9 -2
v 2.6 2.9 -2
v 1.5 2.9 -2.1
v 1.9 2.9 -2.1
v 2.1 2.9 -2.1
v 2.5 2.9 -2.1
v 1 3.6 -1.7
v 1.2 3.6 -1.7
v 2.8 3.6 -1.7
v 3 3.6 -1.7
v 0.9 3.6 -1.8
v 1 3.6 -1.8
v 1.2 3.6 -1.8
v 1.6 3.6 -1.8
v 2.4 3.6 -1.8
v 2.8 3.6 -1.8
v 3 3.6 -1.8
v 3.1 3.6 -1.8
v 0.9 3.6 -1.9
v 1.6 3.6 -1.9
v 2.4 3.6 -1.9
v 3.1 3.6 -1.9
v 1.7 3.8 -1.6
v 2.3 3.8 -1.6
v 1.7 3.8 -1.8
v 1.8 3.8 -1.8
v 1.9 3.8 -1.8
v 2.1 3.8 -1.8
v 2.2 3.8 -1.8
v 2.3 3.8 -1.8
v 1.9 3.8 -1.9
v 2.1 3.8 -1.9
v 1.7 3.8 -2
v 1.8 3.8 -2
v 2.2 3.8 -2
v 2.3 3.8 -2
v 1.8 3.8 -2.1
v 2.2 3.8 -2.1
v 1.7 2.2 -1.6
v 1.9 2.2 -1.6
v 2.1 2.2 -1.6
v 2.3 2.2 -1.6
v 1.7 2.2 -1.8
v 1.9 2.2 -1.8
v 2.1 2.2 -1.8
v 2.3 2.2 -1.8
v 1.7 2.6 -1.7
v 1.9 2.6 -1.7
v 2.1 2.6 -1.7
v 2.3 2.6 -1.7
v 1.7 2.6 -1.8
v 1.9 2.6 -1.8
v 2.1 2.6 -1.8
v 2.3 2.6 -1.8
v 1.6 3.3 -1.5
v 2.4 3.3 -1.5
v 1.5 3.3 -1.6
v 1.6 3.3 -1.6
v 2.4 3.3 -1.6
v 2.5 3.3 -1.6
v 1.4 3.3 -1.7
v 1.5 3.3 -1.7
v 1.6 3.3 -1.7
v 2.4 3.3 -1.7
v 2.5 3.3 -1.7
v 2.6 3.3 -1.7
v 1.4 3.3 -2
v 1.5 3.3 -2
v 1.9 3.3 -2
v 2.1 3.3 -2
v 2.5 3.3 -2
v 2.6 3.3 -2
v 1.5 3.3 -2.1
v 1.9 3.3 -2.1
v 2.1 3.3 -2.1
v 2.5 3.3 -2.1
v 1.5 3.5 -1.7
v 1.6 3.5 -1.7
v 2.4 3.5 -1.7
v 2.5 3.5 -1.7
v 1.5 3.5 -2
v 1.6 3.5 -2
v 2.4 3.5 -2
v 2.5 3.5 -2
v 1.6 3.6 -1.6
v 1.7 3.6 -1.6
v 2.3 3.6 -1.6
v 2.4 3.6 -1.6
v 1.6 3.6 -1.8
v 1.7 3.6 -1.8
v 2.3 3.6 -1.8
v 2.4 3.6 -1.8
v 1.6 3.6 -1.9
v 1.7 3.6 -1.9
v 2.3 3.6 -1.9
v 2.4 3.6 -1.9
v 1.6 3.6 -2
v 1.7 3.6 -2
v 2.3 3.6 -2
v 2.4 3.6 -2
v 1.7 3.7 -1.6
v 2.3 3.7 -1.6
v 1 3.7 -1.7
v 1.2 3.7 -1.7
v 2.8 3.7 -1.7
v 3 3.7 -1.7
v 0.9 3.7 -1.8
v 1 3.7 -1.8
v 1.2 3.7 -1.8
v 1.7 3.7 -1.8
v 1.9 3.7 -1.8
v 2.1 3.7 -1.8
v 2.3 3.7 -1.8
v 2.8 3.7 -1.8
v 3 3.7 -1.8
v 3.1 3.7 -1.8
v 0.9 3.7 -1.9
v 1.7 3.7 -1.9
v 1.9 3.7 -1.9
v 2.1 3.7 -1.9
v 2.3 3.7 -1.9
v 3.1 3.7 -1.9
v 1.7 3.7 -2
v 2.3 3.7 -2
v 1.7 4 -1.6
v 1.8 4 -1.6
v 2.2 4 -1.6
v 2.3 4 -1.6
v 1.7 4 -1.7
v 1.8 4 -1.7
v 2.2 4 -1.7
v 2.3 4 -1.7
v 1.7 4.1 -1.7
v 1.8 4.1 -1.7
v 2.2 4.1 -1.7
v 2.3 4.1 -1.7
v 1.7 4.1 -2
v 1.8 4.1 -2
v 1.9 4.1 -2
v 2.1 4.1 -2
v 2.2 4.1 -2
v 2.3 4.1 -2
v 1.8 4.1 -2.1
v 1.9 4.1 -2.1
v 2.1 4.1 -2.1
v 2.2 4.1 -2.1
v 1.8 4.2 -1.6
v 1.9 4.2 -1.6
v 2.1 4.2 -1.6
v 2.2 4.2 -1.6
v 1.8 4.2 -2
v 1.9 4.2 -2
v 2.1 4.2 -2
v 2.2 4.2 -2
v 1.9 4.2 -2.1
v 2.1 4.2 -2.1
v 1.9 4.3 -1.6
v 2.1 4.3 -1.6
v 1.9 4.3 -2
v 2.1 4.3 -2

# faces
f 3/2/1 2/2/1 1/2/1
f 4/2/1 2/2/1 3/2/1
f 7/2/1 6/2/1 5/2/1
f 8/2/1 6/2/1 7/2/1
f 11/3/1 10/3/1 9/3/1
f 12/3/1 10/3/1 11/3/1
f 13/1/1 12/1/1 11/1/1
f 14/1/1 12/1/1 13/1/1
f 15/2/1 14/2/1 13/2/1
f 16/2/1 14/2/1 15/2/1
f 21/3/1 18/3/1 17/3/1
f 22/3/1 18/3/1 21/3/1
f 23/3/1 20/3/1 19/3/1
f 24/3/1 20/3/1 23/3/1
f 25/1/1 22/1/1 21/1/1
f 26/1/1 22/1/1 25/1/1
f 27/1/1 24/1/1 23/1/1
f 28/1/1 24/1/1 27/1/1
f 29/2/1 26/2/1 25/2/1
f 30/2/1 26/2/1 29/2/1
f 31/2/1 28/2/1 27/2/1
f 32/2/1 28/2/1 31/2/1
f 33/2/1 31/2/1 30/2/1
f 34/2/1 31/2/1 33/2/1
f 37/3/1 36/3/1 35/3/1
f 38/3/1 36/3/1 37/3/1
f 39/1/1 38/1/1 37/1/1
f 40/1/1 38/1/1 39/1/1
f 41/2/1 40/2/1 39/2/1
f 42/2/1 40/2/1 41/2/1
f 44/2/1 43/2/1 42/2/1
f 46/2/1 44/2/1 42/2/1
f 46/2/1 45/2/1 44/2/1
f 47/2/1 45/2/1 46/2/1
f 48/2/1 45/2/1 47/2/1
f 49/2/1 45/2/1 48/2/1
f 52/2/1 51/2/1 50/2/1
f 53/2/1 51/2/1 52/2/1
f 55/2/1 51/2/1 53/2/1
f 56/2/1 55/2/1 54/2/1
f 57/2/1 51/2/1 55/2/1
f 57/2/1 55/2/1 56/2/1
f 58/2/1 51/2/1 57/2/1
f 59/2/1 51/2/1 58/2/1
f 60/3/1 59/3/1 58/3/1
f 61/3/1 59/3/1 60/3/1
f 66/2/1 63/2/1 62/2/1
f 67/2/1 63/2/1 66/2/1
f 68/2/1 65/2/1 64/2/1
f 69/2/1 65/2/1 68/2/1
f 73/2/1 71/2/1 70/2/1
f 74/2/1 71/2/1 73/2/1
f 75/4/1 72/4/1 71/4/1
f 75/2/1 71/2/1 74/2/1
f 76/4/1 75/4/1 74/4/1
f 77/4/1 72/4/1 75/4/1
f 77/4/1 75/4/1 76/4/1
f 82/2/1 81/2/1 80/2/1
f 83/2/1 81/2/1 82/2/1
f 84/4/1 79/4/1 78/4/1
f 85/4/1 79/4/1 84/4/1
f 86/4/1 83/4/1 82/4/1
f 86/4/1 84/4/1 83/4/1
f 87/4/1 84/4/1 86/4/1
f 90/2/1 89/2/1 88/2/1
f 91/2/1 89/2/1 90/2/1
f 95/4/1 93/4/1 92/4/1
f 96/4/1 93/4/1 95/4/1
f 97/4/1 95/4/1 94/4/1
f 98/4/1 95/4/1 97/4/1
f 101/2/1 100/2/1 99/2/1
f 102/2/1 100/2/1 101/2/1
f 104/2/1 100/2/1 102/2/1
f 105/2/1 104/2/1 103/2/1
f 106/2/1 100/2/1 104/2/1
f 106/2/1 104/2/1 105/2/1
f 107/2/1 100/2/1 106/2/1
f 108/2/1 100/2/1 107/2/1
f 109/3/1 108/3/1 107/3/1
f 110/3/1 108/3/1 109/3/1
f 113/3/1 112/3/1 111/3/1
f 114/3/1 112/3/1 113/3/1
f 115/1/1 114/1/1 113/1/1
f 116/1/1 114/1/1 115/1/1
f 117/2/1 116/2/1 115/2/1
f 118/2/1 116/2/1 117/2/1
f 121/2/1 120/2/1 119/2/1
f 122/2/1 120/2/1 121/2/1
f 123/2/2 124/2/2 125/2/2
f 125/2/2 124/2/2 126/2/2
f 127/2/2 128/2/2 129/2/2
f 129/2/2 128/2/2 130/2/2
f 130/2/2 128/2/2 132/2/2
f 131/2/2 132/2/2 133/2/2
f 132/2/2 128/2/2 134/2/2
f 133/2/2 132/2/2 134/2/2
f 134/2/2 128/2/2 135/2/2
f 135/2/2 128/2/2 136/2/2
f 135/3/2 136/3/2 137/3/2
f 137/3/2 136/3/2 138/3/2
f 139/3/2 140/3/2 141/3/2
f 141/3/2 140/3/2 142/3/2
f 141/1/2 142/1/2 143/1/2
f 143/1/2 142/1/2 144/1/2
f 143/2/2 144/2/2 145/2/2
f 145/2/2 144/2/2 146/2/2
f 147/2/2 148/2/2 149/2/2
f 149/2/2 148/2/2 150/2/2
f 151/4/2 152/4/2 154/4/2
f 154/4/2 152/4/2 155/4/2
f 153/4/2 154/4/2 156/4/2
f 156/4/2 154/4/2 157/4/2
f 160/2/2 161/2/2 162/2/2
f 162/2/2 161/2/2 163/2/2
f 158/4/2 159/4/2 164/4/2
f 164/4/2 159/4/2 165/4/2
f 162/4/2 163/4/2 166/4/2
f 163/4/2 164/4/2 166/4/2
f 166/4/2 164/4/2 167/4/2
f 168/2/2 169/2/2 170/2/2
f 170/2/2 169/2/2 171/2/2
f 171/2/2 169/2/2 173/2/2
f 172/2/2 173/2/2 174/2/2
f 173/2/2 169/2/2 175/2/2
f 174/2/2 173/2/2 175/2/2
f 175/2/2 169/2/2 176/2/2
f 176/2/2 169/2/2 177/2/2
f 176/3/2 177/3/2 178/3/2
f 178/3/2 177/3/2 179/3/2
f 180/2/2 181/2/2 184/2/2
f 184/2/2 181/2/2 185/2/2
f 182/2/2 183/2/2 186/2/2
f 186/2/2 183/2/2 187/2/2
f 188/2/2 189/2/2 191/2/2
f 191/2/2 189/2/2 192/2/2
f 189/4/2 190/4/2 193/4/2
f 192/2/2 189/2/2 193/2/2
f 192/4/2 193/4/2 194/4/2
f 193/4/2 190/4/2 195/4/2
f 194/4/2 193/4/2 195/4/2
f 196/3/2 197/3/2 198/3/2
f 198/3/2 197/3/2 199/3/2
f 198/1/2 199/1/2 200/1/2
f 200/1/2 199/1/2 201/1/2
f 200/2/2 201/2/2 202/2/2
f 202/2/2 201/2/2 203/2/2
f 203/2/2 204/2/2 205/2/2
f 203/2/2 205/2/2 207/2/2
f 205/2/2 206/2/2 207/2/2
f 207/2/2 206/2/2 208/2/2
f 208/2/2 206/2/2 209/2/2
f 209/2/2 206/2/2 210/2/2
f 211/3/2 212/3/2 215/3/2
f 215/3/2 212/3/2 216/3/2
f 213/3/2 214/3/2 217/3/2
f 217/3/2 214/3/2 218/3/2
f 215/1/2 216/1/2 219/1/2
f 219/1/2 216/1/2 220/1/2
f 217/1/2 218/1/2 221/1/2
f 221/1/2 218/1/2 222/1/2
f 219/2/2 220/2/2 223/2/2
f 223/2/2 220/2/2 224/2/2
f 221/2/2 222/2/2 225/2/2
f 225/2/2 222/2/2 226/2/2
f 224/2/2 225/2/2 227/2/2
f 227/2/2 225/2/2 228/2/2
f 229/3/2 230/3/2 231/3/2
f 231/3/2 230/3/2 232/3/2
f 231/1/2 232/1/2 233/1/2
f 233/1/2 232/1/2 234/1/2
f 233/2/2 234/2/2 235/2/2
f 235/2/2 234/2/2 236/2/2
f 237/2/2 238/2/2 239/2/2
f 239/2/2 238/2/2 240/2/2
f 241/2/2 242/2/2 243/2/2
f 243/2/2 242/2/2 244/2/2
f 249/3/3 246/3/3 245/3/3
f 250/1/3 247/1/3 246/1/3
f 250/3/3 246/3/3 249/3/3
f 251/2/3 248/2/3 247/2/3
f 251/1/3 247/1/3 250/1/3
f 252/2/3 248/2/3 251/2/3
f 257/3/3 254/3/3 253/3/3
f 258/1/3 255/1/3 254/1/3
f 258/3/3 254/3/3 257/3/3
f 259/2/3 256/2/3 255/2/3
f 259/1/3 255/1/3 258/1/3
f 260/2/3 256/2/3 259/2/3
f 264/2/3 261/2/3 260/2/3
f 268/2/3 267/2/3 266/2/3
f 271/2/3 263/2/3 262/2/3
f 272/2/3 263/2/3 271/2/3
f 273/4/3 270/4/3 269/4/3
f 273/2/3 269/2/3 268/2/3
f 274/4/3 270/4/3 273/4/3
f 278/2/3 273/2/3 268/2/3
f 278/2/3 274/2/3 273/2/3
f 279/4/3 275/4/3 274/4/3
f 279/2/3 274/2/3 278/2/3
f 280/4/3 275/4/3 279/4/3
f 281/2/3 278/2/3 268/2/3
f 281/2/3 268/2/3 266/2/3
f 282/4/3 279/4/3 278/4/3
f 282/2/3 278/2/3 281/2/3
f 283/4/3 279/4/3 282/4/3
f 284/2/3 277/2/3 276/2/3
f 285/2/3 277/2/3 284/2/3
f 286/2/3 264/2/3 260/2/3
f 286/2/3 265/2/3 264/2/3
f 287/2/3 265/2/3 286/2/3
f 288/2/3 281/2/3 266/2/3
f 289/2/3 281/2/3 288/2/3
f 293/2/3 286/2/3 260/2/3
f 294/2/3 286/2/3 293/2/3
f 295/3/3 291/3/3 290/3/3
f 296/1/3 292/1/3 291/1/3
f 296/3/3 291/3/3 295/3/3
f 297/2/3 293/2/3 292/2/3
f 297/1/3 292/1/3 296/1/3
f 298/2/3 293/2/3 297/2/3
f 301/2/3 300/2/3 299/2/3
f 302/2/3 300/2/3 301/2/3
f 307/3/3 304/3/3 303/3/3
f 308/1/3 305/1/3 304/1/3
f 308/3/3 304/3/3 307/3/3
f 309/2/3 306/2/3 305/2/3
f 309/1/3 305/1/3 308/1/3
f 310/2/3 306/2/3 309/2/3
f 312/2/3 311/2/3 310/2/3
f 313/2/3 311/2/3 312/2/3
f 318/4/3 317/4/3 316/4/3
f 319/4/3 317/4/3 318/4/3
f 320/2/3 315/2/3 314/2/3
f 321/2/3 315/2/3 320/2/3
f 326/2/3 323/2/3 322/2/3
f 327/2/3 323/2/3 326/2/3
f 328/4/3 325/4/3 324/4/3
f 329/4/3 325/4/3 328/4/3
f 335/2/3 331/2/3 330/2/3
f 336/2/3 331/2/3 335/2/3
f 337/3/3 333/3/3 332/3/3
f 338/1/3 334/1/3 333/1/3
f 338/3/3 333/3/3 337/3/3
f 339/2/3 335/2/3 334/2/3
f 339/1/3 334/1/3 338/1/3
f 340/2/3 335/2/3 339/2/3
f 343/2/3 342/2/3 341/2/3
f 344/2/3 342/2/3 343/2/3
f 347/2/3 346/2/3 345/2/3
f 348/2/3 346/2/3 347/2/3
f 351/2/3 350/2/3 349/2/3
f 357/2/3 350/2/3 351/2/3
f 358/2/3 350/2/3 357/2/3
f 359/2/3 353/2/3 352/2/3
f 360/2/3 353/2/3 359/2/3
f 361/2/3 355/2/3 354/2/3
f 362/3/3 356/3/3 355/3/3
f 362/2/3 355/2/3 361/2/3
f 363/3/3 356/3/3 362/3/3
f 371/2/3 365/2/3 364/2/3
f 372/2/3 365/2/3 371/2/3
f 373/2/3 367/2/3 366/2/3
f 374/2/3 367/2/3 373/2/3
f 375/2/3 369/2/3 368/2/3
f 376/3/3 370/3/3 369/3/3
f 376/2/3 369/2/3 375/2/3
f 377/3/3 370/3/3 376/3/3
f 380/2/3 379/2/3 378/2/3
f 381/2/3 379/2/3 380/2/3
f 382/2/3 379/2/3 381/2/3
f 385/2/3 384/2/3 383/2/3
f 386/2/3 384/2/3 385/2/3
f 387/2/4 388/2/4 389/2/4
f 389/2/4 388/2/4 393/2/4
f 393/2/4 388/2/4 394/2/4
f 390/2/4 391/2/4 395/2/4
f 391/3/4 392/3/4 396/3/4
f 395/2/4 391/2/4 396/2/4
f 396/3/4 392/3/4 397/3/4
f 398/2/4 399/2/4 403/2/4
f 403/2/4 399/2/4 404/2/4
f 400/2/4 401/2/4 405/2/4
f 401/3/4 402/3/4 406/3/4
f 405/2/4 401/2/4 406/2/4
f 406/3/4 402/3/4 407/3/4
f 408/2/4 409/2/4 410/2/4
f 410/2/4 409/2/4 411/2/4
f 411/2/4 409/2/4 412/2/4
f 413/3/4 414/3/4 417/3/4
f 414/1/4 415/1/4 418/1/4
f 417/3/4 414/3/4 418/3/4
f 415/2/4 416/2/4 419/2/4
f 418/1/4 415/1/4 419/1/4
f 419/2/4 416/2/4 420/2/4
f 420/2/4 421/2/4 422/2/4
f 422/2/4 423/2/4 424/2/4
f 426/4/4 427/4/4 428/4/4
f 428/4/4 427/4/4 429/4/4
f 420/2/4 422/2/4 434/2/4
f 422/2/4 424/2/4 434/2/4
f 424/2/4 425/2/4 434/2/4
f 429/4/4 430/4/4 435/4/4
f 435/4/4 430/4/4 436/4/4
f 431/3/4 432/3/4 438/3/4
f 432/1/4 433/1/4 439/1/4
f 438/3/4 432/3/4 439/3/4
f 433/2/4 434/2/4 440/2/4
f 439/1/4 433/1/4 440/1/4
f 434/2/4 425/2/4 441/2/4
f 440/2/4 434/2/4 441/2/4
f 436/4/4 437/4/4 443/4/4
f 443/4/4 437/4/4 444/4/4
f 442/4/4 443/4/4 446/4/4
f 446/4/4 443/4/4 447/4/4
f 441/2/4 425/2/4 448/2/4
f 448/2/4 425/2/4 449/2/4
f 445/4/4 446/4/4 450/4/4
f 450/4/4 446/4/4 451/4/4
f 441/2/4 448/2/4 452/2/4
f 452/2/4 448/2/4 453/2/4
f 441/2/4 452/2/4 457/2/4
f 457/2/4 452/2/4 458/2/4
f 454/3/4 455/3/4 459/3/4
f 455/1/4 456/1/4 460/1/4
f 459/3/4 455/3/4 460/3/4
f 456/2/4 457/2/4 461/2/4
f 460/1/4 456/1/4 461/1/4
f 461/2/4 457/2/4 462/2/4
f 463/3/4 464/3/4 469/3/4
f 464/1/4 465/1/4 470/1/4
f 469/3/4 464/3/4 470/3/4
f 465/2/4 466/2/4 471/2/4
f 470/1/4 465/1/4 471/1/4
f 471/2/4 466/2/4 472/2/4
f 467/4/4 468/4/4 473/4/4
f 473/4/4 474/4/4 479/4/4
f 467/4/4 473/4/4 479/4/4
f 479/4/4 474/4/4 480/4/4
f 467/4/4 479/4/4 481/4/4
f 481/4/4 479/4/4 482/4/4
f 475/3/4 476/3/4 483/3/4
f 476/1/4 477/1/4 484/1/4
f 483/3/4 476/3/4 484/3/4
f 477/2/4 478/2/4 485/2/4
f 484/1/4 477/1/4 485/1/4
f 485/2/4 478/2/4 486/2/4
f 491/2/5 488/2/5 487/2/5
f 492/2/5 488/2/5 491/2/5
f 493/2/5 490/2/5 489/2/5
f 494/2/5 490/2/5 493/2/5
f 499/2/5 496/2/5 495/2/5
f 500/2/5 496/2/5 499/2/5
f 501/2/5 498/2/5 497/2/5
f 502/2/5 498/2/5 501/2/5
f 506/3/5 504/3/5 503/3/5
f 507/3/5 504/3/5 506/3/5
f 510/3/5 506/3/5 505/3/5
f 510/3/5 508/3/5 507/3/5
f 510/3/5 507/3/5 506/3/5
f 511/3/5 508/3/5 510/3/5
f 513/3/5 510/3/5 509/3/5
f 513/3/5 512/3/5 511/3/5
f 513/3/5 511/3/5 510/3/5
f 514/3/5 512/3/5 513/3/5
f 515/3/5 512/3/5 514/3/5
f 516/3/5 512/3/5 515/3/5
f 517/3/5 513/3/5 509/3/5
f 518/3/5 515/3/5 514/3/5
f 519/3/5 515/3/5 518/3/5
f 520/3/5 512/3/5 516/3/5
f 521/3/5 519/3/5 518/3/5
f 521/3/5 520/3/5 519/3/5
f 521/3/5 517/3/5 509/3/5
f 521/3/5 518/3/5 517/3/5
f 522/3/5 520/3/5 521/3/5
f 523/3/5 520/3/5 522/3/5
f 524/3/5 520/3/5 523/3/5
f 525/3/5 512/3/5 520/3/5
f 525/3/5 520/3/5 524/3/5
f 526/3/5 512/3/5 525/3/5
f 527/3/5 523/3/5 522/3/5
f 528/3/5 523/3/5 527/3/5
f 529/3/5 525/3/5 524/3/5
f 530/3/5 525/3/5 529/3/5
f 536/2/5 532/2/5 531/2/5
f 537/2/5 532/2/5 536/2/5
f 540/2/5 534/2/5 533/2/5
f 541/2/5 534/2/5 540/2/5
f 543/2/5 538/2/5 537/2/5
f 543/2/5 536/2/5 535/2/5
f 543/2/5 537/2/5 536/2/5
f 544/2/5 538/2/5 543/2/5
f 545/2/5 542/2/5 541/2/5
f 545/2/5 541/2/5 540/2/5
f 545/2/5 540/2/5 539/2/5
f 546/2/5 542/2/5 545/2/5
f 549/2/5 548/2/5 547/2/5
f 550/2/5 548/2/5 549/2/5
f 551/2/5 548/2/5 550/2/5
f 552/2/5 548/2/5 551/2/5
f 553/2/5 548/2/5 552/2/5
f 554/2/5 548/2/5 553/2/5
f 555/2/5 551/2/5 550/2/5
f 556/2/5 553/2/5 552/2/5
f 557/4/5 550/4/5 549/4/5
f 558/2/5 556/2/5 555/2/5
f 558/4/5 550/4/5 557/4/5
f 558/2/5 555/2/5 550/2/5
f 559/4/5 554/4/5 553/4/5
f 559/2/5 556/2/5 558/2/5
f 559/2/5 553/2/5 556/2/5
f 560/4/5 554/4/5 559/4/5
f 561/4/5 559/4/5 558/4/5
f 562/4/5 559/4/5 561/4/5
f 563/2/6 564/2/6 567/2/6
f 567/2/6 564/2/6 568/2/6
f 565/2/6 566/2/6 569/2/6
f 569/2/6 566/2/6 570/2/6
f 571/2/6 572/2/6 575/2/6
f 575/2/6 572/2/6 576/2/6
f 573/2/6 574/2/6 577/2/6
f 577/2/6 574/2/6 578/2/6
f 579/2/6 580/2/6 582/2/6
f 582/2/6 580/2/6 583/2/6
f 581/2/6 582/2/6 586/2/6
f 586/2/6 582/2/6 587/2/6
f 583/2/6 584/2/6 588/2/6
f 588/2/6 584/2/6 589/2/6
f 585/2/6 586/2/6 591/2/6
f 591/2/6 586/2/6 592/2/6
f 589/2/6 590/2/6 595/2/6
f 595/2/6 590/2/6 596/2/6
f 592/2/6 593/2/6 597/2/6
f 597/2/6 593/2/6 598/2/6
f 594/2/6 595/2/6 599/2/6
f 599/2/6 595/2/6 600/2/6
f 601/2/6 602/2/6 605/2/6
f 605/2/6 602/2/6 606/2/6
f 603/2/6 604/2/6 607/2/6
f 607/2/6 604/2/6 608/2/6
f 609/2/6 610/2/6 613/2/6
f 613/2/6 610/2/6 614/2/6
f 611/2/6 612/2/6 615/2/6
f 615/2/6 612/2/6 616/2/6
f 617/2/6 618/2/6 621/2/6
f 621/2/6 618/2/6 622/2/6
f 619/2/6 620/2/6 623/2/6
f 623/2/6 620/2/6 624/2/6
f 627/2/6 628/2/6 632/2/6
f 632/2/6 628/2/6 633/2/6
f 625/2/6 626/2/6 634/2/6
f 634/2/6 626/2/6 635/2/6
f 635/2/6 626/2/6 636/2/6
f 636/2/6 626/2/6 637/2/6
f 629/2/6 630/2/6 638/2/6
f 638/2/6 630/2/6 639/2/6
f 632/2/6 633/2/6 641/2/6
f 631/2/6 632/2/6 641/2/6
f 633/2/6 634/2/6 641/2/6
f 634/2/6 635/2/6 641/2/6
f 641/2/6 635/2/6 642/2/6
f 642/2/6 635/2/6 643/2/6
f 639/2/6 640/2/6 644/2/6
f 636/2/6 637/2/6 644/2/6
f 638/2/6 639/2/6 644/2/6
f 637/2/6 638/2/6 644/2/6
f 644/2/6 640/2/6 645/2/6
f 645/2/6 640/2/6 646/2/6
f 642/2/6 643/2/6 647/2/6
f 644/2/6 645/2/6 647/2/6
f 643/2/6 644/2/6 647/2/6
f 647/2/6 645/2/6 648/2/6
f 649/2/6 650/2/6 653/2/6
f 653/2/6 650/2/6 654/2/6
f 651/2/6 652/2/6 655/2/6
f 655/2/6 652/2/6 656/2/6
f 657/4/6 658/4/6 661/4/6
f 661/4/6 658/4/6 662/4/6
f 659/4/6 660/4/6 665/4/6
f 665/4/6 660/4/6 666/4/6
f 662/4/6 663/4/6 667/4/6
f 667/4/6 663/4/6 668/4/6
f 664/4/6 665/4/6 669/4/6
f 669/4/6 665/4/6 670/4/6
f 671/4/6 672/4/6 675/4/6
f 675/4/6 672/4/6 676/4/6
f 673/4/6 674/4/6 677/4/6
f 677/4/6 674/4/6 678/4/6
f 676/4/6 677/4/6 679/4/6
f 679/4/6 677/4/6 680/4/6
f 681/4/6 682/4/6 683/4/6
f 683/4/6 682/4/6 684/4/6
