# MagicaVoxel @ Ephtracy

# group
o 

# material
mtllib female.mtl
usemtl palette

# normals
vn -1 0 0
vn 1 0 0
vn 0 0 1
vn 0 0 -1
vn 0 -1 0
vn 0 1 0

# texcoords
vt 0.369141 0.5
vt 0.904297 0.5
vt 0.994141 0.5

# verts
v 0.9 3.6 -1.8
v 0.9 3.6 -1.9
v 0.9 3.7 -1.8
v 0.9 3.7 -1.9
v 1 3.6 -1.7
v 1 3.6 -1.8
v 1 3.7 -1.7
v 1 3.7 -1.8
v 1.7 2.9 -1.7
v 1.7 2.9 -2
v 1.7 3 -1.7
v 1.7 3 -2
v 1.7 3.1 -1.7
v 1.7 3.1 -2
v 1.7 3.4 -1.6
v 1.7 3.4 -1.7
v 1.7 3.4 -2
v 1.7 3.5 -1.7
v 1.7 3.5 -2
v 1.7 3.6 -1.6
v 1.7 3.6 -1.7
v 1.7 3.6 -1.8
v 1.7 3.6 -1.9
v 1.7 3.7 -1.7
v 1.7 3.7 -1.8
v 1.7 3.7 -1.9
v 1.7 3.7 -2
v 1.7 3.8 -1.6
v 1.7 3.8 -2
v 1.7 4.2 -1.6
v 1.7 4.2 -2
v 1.8 2 -1.6
v 1.8 2 -1.9
v 1.8 2.2 -1.6
v 1.8 2.2 -1.8
v 1.8 2.5 -1.7
v 1.8 2.5 -1.8
v 1.8 2.6 -1.7
v 1.8 2.6 -1.8
v 1.8 2.9 -1.8
v 1.8 2.9 -1.9
v 1.8 3.8 -2
v 1.8 3.8 -2.1
v 1.8 4.2 -1.6
v 1.8 4.2 -2
v 1.8 4.2 -2.1
v 1.8 4.3 -1.6
v 1.8 4.3 -2
v 1.9 3.6 -2.1
v 1.9 3.6 -2.2
v 1.9 3.7 -1.8
v 1.9 3.7 -1.9
v 1.9 3.8 -1.8
v 1.9 3.8 -1.9
v 1.9 3.8 -2.1
v 1.9 4 -2.1
v 1.9 4 -2.2
v 1.9 4.3 -1.7
v 1.9 4.3 -1.9
v 1.9 4.4 -1.7
v 1.9 4.4 -1.9
v 2.1 2 -1.6
v 2.1 2 -1.9
v 2.1 2.2 -1.6
v 2.1 2.2 -1.8
v 2.1 2.5 -1.7
v 2.1 2.5 -1.8
v 2.1 2.6 -1.7
v 2.1 2.6 -1.8
v 2.1 2.9 -1.8
v 2.1 2.9 -1.9
v 2.1 3.4 -1.6
v 2.1 3.4 -1.7
v 2.1 3.5 -1.7
v 2.1 3.6 -1.6
v 2.1 3.6 -1.7
v 2.1 3.8 -2
v 2.1 3.8 -2.1
v 2.1 3.9 -2
v 2.1 3.9 -2.1
v 2.8 3.6 -1.7
v 2.8 3.6 -1.8
v 2.8 3.7 -1.7
v 2.8 3.7 -1.8
v 1.2 3.6 -1.7
v 1.2 3.6 -1.8
v 1.2 3.7 -1.7
v 1.2 3.7 -1.8
v 1.9 2 -1.6
v 1.9 2 -1.9
v 1.9 2.2 -1.6
v 1.9 2.2 -1.8
v 1.9 2.5 -1.7
v 1.9 2.5 -1.8
v 1.9 2.6 -1.7
v 1.9 2.6 -1.8
v 1.9 2.9 -1.8
v 1.9 2.9 -1.9
v 1.9 3.4 -1.6
v 1.9 3.4 -1.7
v 1.9 3.5 -1.7
v 1.9 3.6 -1.6
v 1.9 3.6 -1.7
v 1.9 3.8 -2
v 1.9 3.8 -2.1
v 1.9 3.9 -2
v 1.9 3.9 -2.1
v 2.1 3.6 -2.1
v 2.1 3.6 -2.2
v 2.1 3.7 -1.8
v 2.1 3.7 -1.9
v 2.1 3.8 -1.8
v 2.1 3.8 -1.9
v 2.1 3.8 -2.1
v 2.1 4 -2.1
v 2.1 4 -2.2
v 2.1 4.3 -1.7
v 2.1 4.3 -1.9
v 2.1 4.4 -1.7
v 2.1 4.4 -1.9
v 2.2 2 -1.6
v 2.2 2 -1.9
v 2.2 2.2 -1.6
v 2.2 2.2 -1.8
v 2.2 2.5 -1.7
v 2.2 2.5 -1.8
v 2.2 2.6 -1.7
v 2.2 2.6 -1.8
v 2.2 2.9 -1.8
v 2.2 2.9 -1.9
v 2.2 3.8 -2
v 2.2 3.8 -2.1
v 2.2 4.2 -1.6
v 2.2 4.2 -2
v 2.2 4.2 -2.1
v 2.2 4.3 -1.6
v 2.2 4.3 -2
v 2.3 2.9 -1.7
v 2.3 2.9 -2
v 2.3 3 -1.7
v 2.3 3 -2
v 2.3 3.1 -1.7
v 2.3 3.1 -2
v 2.3 3.4 -1.6
v 2.3 3.4 -1.7
v 2.3 3.4 -2
v 2.3 3.5 -1.7
v 2.3 3.5 -2
v 2.3 3.6 -1.6
v 2.3 3.6 -1.7
v 2.3 3.6 -1.8
v 2.3 3.6 -1.9
v 2.3 3.7 -1.7
v 2.3 3.7 -1.8
v 2.3 3.7 -1.9
v 2.3 3.7 -2
v 2.3 3.8 -1.6
v 2.3 3.8 -2
v 2.3 4.2 -1.6
v 2.3 4.2 -2
v 3 3.6 -1.7
v 3 3.6 -1.8
v 3 3.7 -1.7
v 3 3.7 -1.8
v 3.1 3.6 -1.8
v 3.1 3.6 -1.9
v 3.1 3.7 -1.8
v 3.1 3.7 -1.9
v 1.7 3.4 -1.6
v 1.7 3.6 -1.6
v 1.7 3.8 -1.6
v 1.7 4.2 -1.6
v 1.8 2 -1.6
v 1.8 2.2 -1.6
v 1.8 3.8 -1.6
v 1.8 4.2 -1.6
v 1.8 4.3 -1.6
v 1.9 2 -1.6
v 1.9 2.2 -1.6
v 1.9 3.4 -1.6
v 1.9 3.6 -1.6
v 2.1 2 -1.6
v 2.1 2.2 -1.6
v 2.1 3.4 -1.6
v 2.1 3.6 -1.6
v 2.2 2 -1.6
v 2.2 2.2 -1.6
v 2.2 3.8 -1.6
v 2.2 4.2 -1.6
v 2.2 4.3 -1.6
v 2.3 3.4 -1.6
v 2.3 3.6 -1.6
v 2.3 3.8 -1.6
v 2.3 4.2 -1.6
v 1 3.6 -1.7
v 1 3.7 -1.7
v 1.2 3.6 -1.7
v 1.2 3.7 -1.7
v 1.7 2.9 -1.7
v 1.7 3 -1.7
v 1.7 3.1 -1.7
v 1.7 3.4 -1.7
v 1.7 3.6 -1.7
v 1.7 3.7 -1.7
v 1.8 2.5 -1.7
v 1.8 2.6 -1.7
v 1.9 2.5 -1.7
v 1.9 2.6 -1.7
v 1.9 2.9 -1.7
v 1.9 3 -1.7
v 1.9 3.4 -1.7
v 1.9 3.5 -1.7
v 1.9 3.6 -1.7
v 1.9 4.3 -1.7
v 1.9 4.4 -1.7
v 2.1 2.5 -1.7
v 2.1 2.6 -1.7
v 2.1 2.9 -1.7
v 2.1 3 -1.7
v 2.1 3.4 -1.7
v 2.1 3.5 -1.7
v 2.1 3.6 -1.7
v 2.1 4.3 -1.7
v 2.1 4.4 -1.7
v 2.2 2.5 -1.7
v 2.2 2.6 -1.7
v 2.3 2.9 -1.7
v 2.3 3 -1.7
v 2.3 3.1 -1.7
v 2.3 3.4 -1.7
v 2.3 3.6 -1.7
v 2.3 3.7 -1.7
v 2.8 3.6 -1.7
v 2.8 3.7 -1.7
v 3 3.6 -1.7
v 3 3.7 -1.7
v 0.9 3.6 -1.8
v 0.9 3.7 -1.8
v 1 3.6 -1.8
v 1 3.7 -1.8
v 1.2 3.6 -1.8
v 1.2 3.7 -1.8
v 1.7 3.6 -1.8
v 1.7 3.7 -1.8
v 1.8 2.2 -1.8
v 1.8 2.5 -1.8
v 1.8 2.6 -1.8
v 1.8 2.9 -1.8
v 1.9 2.2 -1.8
v 1.9 2.5 -1.8
v 1.9 2.6 -1.8
v 1.9 2.9 -1.8
v 1.9 3.7 -1.8
v 1.9 3.8 -1.8
v 2.1 2.2 -1.8
v 2.1 2.5 -1.8
v 2.1 2.6 -1.8
v 2.1 2.9 -1.8
v 2.1 3.7 -1.8
v 2.1 3.8 -1.8
v 2.2 2.2 -1.8
v 2.2 2.5 -1.8
v 2.2 2.6 -1.8
v 2.2 2.9 -1.8
v 2.3 3.6 -1.8
v 2.3 3.7 -1.8
v 2.8 3.6 -1.8
v 2.8 3.7 -1.8
v 3 3.6 -1.8
v 3 3.7 -1.8
v 3.1 3.6 -1.8
v 3.1 3.7 -1.8
v 1.9 3.6 -2.1
v 1.9 3.8 -2.1
v 1.9 3.9 -2.1
v 2.1 3.6 -2.1
v 2.1 3.8 -2.1
v 2.1 3.9 -2.1
v 0.9 3.6 -1.9
v 0.9 3.7 -1.9
v 1.7 3.6 -1.9
v 1.7 3.7 -1.9
v 1.8 2 -1.9
v 1.8 2.9 -1.9
v 1.9 2 -1.9
v 1.9 2.9 -1.9
v 1.9 3.7 -1.9
v 1.9 3.8 -1.9
v 1.9 4.3 -1.9
v 1.9 4.4 -1.9
v 2.1 2 -1.9
v 2.1 2.9 -1.9
v 2.1 3.7 -1.9
v 2.1 3.8 -1.9
v 2.1 4.3 -1.9
v 2.1 4.4 -1.9
v 2.2 2 -1.9
v 2.2 2.9 -1.9
v 2.3 3.6 -1.9
v 2.3 3.7 -1.9
v 3.1 3.6 -1.9
v 3.1 3.7 -1.9
v 1.7 2.9 -2
v 1.7 3 -2
v 1.7 3.1 -2
v 1.7 3.4 -2
v 1.7 3.5 -2
v 1.7 3.7 -2
v 1.7 3.8 -2
v 1.7 4.2 -2
v 1.8 2.9 -2
v 1.8 3 -2
v 1.8 3.8 -2
v 1.8 4.2 -2
v 1.8 4.3 -2
v 1.9 3.8 -2
v 1.9 3.9 -2
v 2.1 3.8 -2
v 2.1 3.9 -2
v 2.2 2.9 -2
v 2.2 3 -2
v 2.2 3.8 -2
v 2.2 4.2 -2
v 2.2 4.3 -2
v 2.3 2.9 -2
v 2.3 3 -2
v 2.3 3.1 -2
v 2.3 3.4 -2
v 2.3 3.5 -2
v 2.3 3.7 -2
v 2.3 3.8 -2
v 2.3 4.2 -2
v 1.8 3.8 -2.1
v 1.8 4.2 -2.1
v 1.9 3.8 -2.1
v 1.9 4 -2.1
v 2.1 3.8 -2.1
v 2.1 4 -2.1
v 2.2 3.8 -2.1
v 2.2 4.2 -2.1
v 1.9 3.6 -2.2
v 1.9 4 -2.2
v 2.1 3.6 -2.2
v 2.1 4 -2.2
v 1.8 2 -1.6
v 1.9 2 -1.6
v 2.1 2 -1.6
v 2.2 2 -1.6
v 1.8 2 -1.9
v 1.9 2 -1.9
v 2.1 2 -1.9
v 2.2 2 -1.9
v 1.8 2.5 -1.7
v 1.9 2.5 -1.7
v 2.1 2.5 -1.7
v 2.2 2.5 -1.7
v 1.8 2.5 -1.8
v 1.9 2.5 -1.8
v 2.1 2.5 -1.8
v 2.2 2.5 -1.8
v 1.7 2.9 -1.7
v 1.9 2.9 -1.7
v 2.1 2.9 -1.7
v 2.3 2.9 -1.7
v 1.8 2.9 -1.8
v 1.9 2.9 -1.8
v 2.1 2.9 -1.8
v 2.2 2.9 -1.8
v 1.8 2.9 -1.9
v 1.9 2.9 -1.9
v 2.1 2.9 -1.9
v 2.2 2.9 -1.9
v 1.7 2.9 -2
v 1.8 2.9 -2
v 2.2 2.9 -2
v 2.3 2.9 -2
v 1.7 3.4 -1.6
v 1.9 3.4 -1.6
v 2.1 3.4 -1.6
v 2.3 3.4 -1.6
v 1.7 3.4 -1.7
v 1.9 3.4 -1.7
v 2.1 3.4 -1.7
v 2.3 3.4 -1.7
v 1 3.6 -1.7
v 1.2 3.6 -1.7
v 2.8 3.6 -1.7
v 3 3.6 -1.7
v 0.9 3.6 -1.8
v 1 3.6 -1.8
v 1.2 3.6 -1.8
v 1.7 3.6 -1.8
v 2.3 3.6 -1.8
v 2.8 3.6 -1.8
v 3 3.6 -1.8
v 3.1 3.6 -1.8
v 0.9 3.6 -1.9
v 1.7 3.6 -1.9
v 2.3 3.6 -1.9
v 3.1 3.6 -1.9
v 1.9 3.6 -2.1
v 2.1 3.6 -2.1
v 1.9 3.6 -2.2
v 2.1 3.6 -2.2
v 1.7 3.8 -1.6
v 1.8 3.8 -1.6
v 2.2 3.8 -1.6
v 2.3 3.8 -1.6
v 1.9 3.8 -1.8
v 2.1 3.8 -1.8
v 1.9 3.8 -1.9
v 2.1 3.8 -1.9
v 1.7 3.8 -2
v 1.8 3.8 -2
v 1.9 3.8 -2
v 2.1 3.8 -2
v 2.2 3.8 -2
v 2.3 3.8 -2
v 1.8 3.8 -2.1
v 1.9 3.8 -2.1
v 2.1 3.8 -2.1
v 2.2 3.8 -2.1
v 1.9 3.9 -2
v 2.1 3.9 -2
v 1.9 3.9 -2.1
v 2.1 3.9 -2.1
v 1.8 2.2 -1.6
v 1.9 2.2 -1.6
v 2.1 2.2 -1.6
v 2.2 2.2 -1.6
v 1.8 2.2 -1.8
v 1.9 2.2 -1.8
v 2.1 2.2 -1.8
v 2.2 2.2 -1.8
v 1.8 2.6 -1.7
v 1.9 2.6 -1.7
v 2.1 2.6 -1.7
v 2.2 2.6 -1.7
v 1.8 2.6 -1.8
v 1.9 2.6 -1.8
v 2.1 2.6 -1.8
v 2.2 2.6 -1.8
v 1.7 3.6 -1.6
v 1.9 3.6 -1.6
v 2.1 3.6 -1.6
v 2.3 3.6 -1.6
v 1.7 3.6 -1.7
v 1.9 3.6 -1.7
v 2.1 3.6 -1.7
v 2.3 3.6 -1.7
v 1 3.7 -1.7
v 1.2 3.7 -1.7
v 1.7 3.7 -1.7
v 2.3 3.7 -1.7
v 2.8 3.7 -1.7
v 3 3.7 -1.7
v 0.9 3.7 -1.8
v 1 3.7 -1.8
v 1.2 3.7 -1.8
v 1.7 3.7 -1.8
v 1.9 3.7 -1.8
v 2.1 3.7 -1.8
v 2.3 3.7 -1.8
v 2.8 3.7 -1.8
v 3 3.7 -1.8
v 3.1 3.7 -1.8
v 0.9 3.7 -1.9
v 1.7 3.7 -1.9
v 1.9 3.7 -1.9
v 2.1 3.7 -1.9
v 2.3 3.7 -1.9
v 3.1 3.7 -1.9
v 1.7 3.7 -2
v 2.3 3.7 -2
v 1.9 4 -2.1
v 2.1 4 -2.1
v 1.9 4 -2.2
v 2.1 4 -2.2
v 1.7 4.2 -1.6
v 1.8 4.2 -1.6
v 2.2 4.2 -1.6
v 2.3 4.2 -1.6
v 1.7 4.2 -2
v 1.8 4.2 -2
v 2.2 4.2 -2
v 2.3 4.2 -2
v 1.8 4.2 -2.1
v 2.2 4.2 -2.1
v 1.8 4.3 -1.6
v 2.2 4.3 -1.6
v 1.9 4.3 -1.7
v 2.1 4.3 -1.7
v 1.9 4.3 -1.9
v 2.1 4.3 -1.9
v 1.8 4.3 -2
v 2.2 4.3 -2
v 1.9 4.4 -1.7
v 2.1 4.4 -1.7
v 1.9 4.4 -1.9
v 2.1 4.4 -1.9

# faces
f 3/1/1 2/1/1 1/1/1
f 4/1/1 2/1/1 3/1/1
f 7/1/1 6/1/1 5/1/1
f 8/1/1 6/1/1 7/1/1
f 11/1/1 10/1/1 9/1/1
f 12/1/1 10/1/1 11/1/1
f 13/2/1 12/2/1 11/2/1
f 14/2/1 12/2/1 13/2/1
f 16/1/1 14/1/1 13/1/1
f 17/1/1 14/1/1 16/1/1
f 18/2/1 16/2/1 15/2/1
f 18/2/1 17/2/1 16/2/1
f 19/2/1 17/2/1 18/2/1
f 20/2/1 18/2/1 15/2/1
f 21/1/1 19/1/1 18/1/1
f 21/2/1 18/2/1 20/2/1
f 22/1/1 19/1/1 21/1/1
f 23/1/1 19/1/1 22/1/1
f 24/1/1 22/1/1 21/1/1
f 25/1/1 22/1/1 24/1/1
f 26/1/1 19/1/1 23/1/1
f 27/1/1 19/1/1 26/1/1
f 30/3/1 29/3/1 28/3/1
f 31/3/1 29/3/1 30/3/1
f 34/1/1 33/1/1 32/1/1
f 35/1/1 33/1/1 34/1/1
f 37/1/1 33/1/1 35/1/1
f 38/1/1 37/1/1 36/1/1
f 39/1/1 33/1/1 37/1/1
f 39/1/1 37/1/1 38/1/1
f 40/1/1 33/1/1 39/1/1
f 41/1/1 33/1/1 40/1/1
f 45/3/1 43/3/1 42/3/1
f 46/3/1 43/3/1 45/3/1
f 47/3/1 45/3/1 44/3/1
f 48/3/1 45/3/1 47/3/1
f 53/1/1 52/1/1 51/1/1
f 54/1/1 52/1/1 53/1/1
f 55/3/1 50/3/1 49/3/1
f 56/3/1 50/3/1 55/3/1
f 57/3/1 50/3/1 56/3/1
f 60/3/1 59/3/1 58/3/1
f 61/3/1 59/3/1 60/3/1
f 64/1/1 63/1/1 62/1/1
f 65/1/1 63/1/1 64/1/1
f 67/1/1 63/1/1 65/1/1
f 68/1/1 67/1/1 66/1/1
f 69/1/1 63/1/1 67/1/1
f 69/1/1 67/1/1 68/1/1
f 70/1/1 63/1/1 69/1/1
f 71/1/1 63/1/1 70/1/1
f 74/2/1 73/2/1 72/2/1
f 75/2/1 74/2/1 72/2/1
f 76/2/1 74/2/1 75/2/1
f 79/3/1 78/3/1 77/3/1
f 80/3/1 78/3/1 79/3/1
f 83/1/1 82/1/1 81/1/1
f 84/1/1 82/1/1 83/1/1
f 85/1/2 86/1/2 87/1/2
f 87/1/2 86/1/2 88/1/2
f 89/1/2 90/1/2 91/1/2
f 91/1/2 90/1/2 92/1/2
f 92/1/2 90/1/2 94/1/2
f 93/1/2 94/1/2 95/1/2
f 94/1/2 90/1/2 96/1/2
f 95/1/2 94/1/2 96/1/2
f 96/1/2 90/1/2 97/1/2
f 97/1/2 90/1/2 98/1/2
f 99/2/2 100/2/2 101/2/2
f 99/2/2 101/2/2 102/2/2
f 102/2/2 101/2/2 103/2/2
f 104/3/2 105/3/2 106/3/2
f 106/3/2 105/3/2 107/3/2
f 110/1/2 111/1/2 112/1/2
f 112/1/2 111/1/2 113/1/2
f 108/3/2 109/3/2 114/3/2
f 114/3/2 109/3/2 115/3/2
f 115/3/2 109/3/2 116/3/2
f 117/3/2 118/3/2 119/3/2
f 119/3/2 118/3/2 120/3/2
f 121/1/2 122/1/2 123/1/2
f 123/1/2 122/1/2 124/1/2
f 124/1/2 122/1/2 126/1/2
f 125/1/2 126/1/2 127/1/2
f 126/1/2 122/1/2 128/1/2
f 127/1/2 126/1/2 128/1/2
f 128/1/2 122/1/2 129/1/2
f 129/1/2 122/1/2 130/1/2
f 131/3/2 132/3/2 134/3/2
f 134/3/2 132/3/2 135/3/2
f 133/3/2 134/3/2 136/3/2
f 136/3/2 134/3/2 137/3/2
f 138/1/2 139/1/2 140/1/2
f 140/1/2 139/1/2 141/1/2
f 140/2/2 141/2/2 142/2/2
f 142/2/2 141/2/2 143/2/2
f 142/1/2 143/1/2 145/1/2
f 145/1/2 143/1/2 146/1/2
f 144/2/2 145/2/2 147/2/2
f 145/2/2 146/2/2 147/2/2
f 147/2/2 146/2/2 148/2/2
f 144/2/2 147/2/2 149/2/2
f 147/1/2 148/1/2 150/1/2
f 149/2/2 147/2/2 150/2/2
f 150/1/2 148/1/2 151/1/2
f 151/1/2 148/1/2 152/1/2
f 150/1/2 151/1/2 153/1/2
f 153/1/2 151/1/2 154/1/2
f 152/1/2 148/1/2 155/1/2
f 155/1/2 148/1/2 156/1/2
f 157/3/2 158/3/2 159/3/2
f 159/3/2 158/3/2 160/3/2
f 161/1/2 162/1/2 163/1/2
f 163/1/2 162/1/2 164/1/2
f 165/1/2 166/1/2 167/1/2
f 167/1/2 166/1/2 168/1/2
f 175/3/3 172/3/3 171/3/3
f 176/3/3 172/3/3 175/3/3
f 178/1/3 174/1/3 173/1/3
f 179/1/3 174/1/3 178/1/3
f 180/2/3 170/2/3 169/2/3
f 181/2/3 170/2/3 180/2/3
f 186/1/3 183/1/3 182/1/3
f 187/1/3 183/1/3 186/1/3
f 188/1/3 176/1/3 175/1/3
f 189/3/3 177/3/3 176/3/3
f 189/1/3 176/1/3 188/1/3
f 190/3/3 177/3/3 189/3/3
f 191/2/3 185/2/3 184/2/3
f 192/2/3 185/2/3 191/2/3
f 193/3/3 189/3/3 188/3/3
f 194/3/3 189/3/3 193/3/3
f 197/1/3 196/1/3 195/1/3
f 198/1/3 196/1/3 197/1/3
f 207/1/3 206/1/3 205/1/3
f 208/1/3 206/1/3 207/1/3
f 209/1/3 200/1/3 199/1/3
f 210/2/3 201/2/3 200/2/3
f 210/1/3 200/1/3 209/1/3
f 211/1/3 202/1/3 201/1/3
f 213/1/3 204/1/3 203/1/3
f 218/2/3 210/2/3 209/2/3
f 219/2/3 201/2/3 210/2/3
f 219/2/3 210/2/3 218/2/3
f 220/2/3 212/2/3 211/2/3
f 220/1/3 211/1/3 201/1/3
f 221/1/3 213/1/3 212/1/3
f 221/2/3 212/2/3 220/2/3
f 222/1/3 204/1/3 213/1/3
f 222/1/3 213/1/3 221/1/3
f 223/3/3 215/3/3 214/3/3
f 224/3/3 215/3/3 223/3/3
f 225/1/3 217/1/3 216/1/3
f 226/1/3 217/1/3 225/1/3
f 227/1/3 219/1/3 218/1/3
f 228/2/3 201/2/3 219/2/3
f 228/1/3 219/1/3 227/1/3
f 229/1/3 220/1/3 201/1/3
f 229/2/3 201/2/3 228/2/3
f 230/1/3 220/1/3 229/1/3
f 231/1/3 204/1/3 222/1/3
f 232/1/3 204/1/3 231/1/3
f 235/1/3 234/1/3 233/1/3
f 236/1/3 234/1/3 235/1/3
f 239/1/3 238/1/3 237/1/3
f 240/1/3 238/1/3 239/1/3
f 243/1/3 242/1/3 241/1/3
f 244/1/3 242/1/3 243/1/3
f 249/1/3 246/1/3 245/1/3
f 250/1/3 246/1/3 249/1/3
f 251/1/3 248/1/3 247/1/3
f 252/1/3 248/1/3 251/1/3
f 259/1/3 254/1/3 253/1/3
f 260/1/3 254/1/3 259/1/3
f 261/1/3 256/1/3 255/1/3
f 262/1/3 256/1/3 261/1/3
f 263/1/3 258/1/3 257/1/3
f 264/1/3 258/1/3 263/1/3
f 267/1/3 266/1/3 265/1/3
f 268/1/3 266/1/3 267/1/3
f 271/1/3 270/1/3 269/1/3
f 272/1/3 270/1/3 271/1/3
f 276/3/3 274/3/3 273/3/3
f 276/3/3 275/3/3 274/3/3
f 277/3/3 275/3/3 276/3/3
f 278/3/3 275/3/3 277/3/3
f 279/1/4 280/1/4 281/1/4
f 281/1/4 280/1/4 282/1/4
f 283/1/4 284/1/4 285/1/4
f 285/1/4 284/1/4 286/1/4
f 287/1/4 288/1/4 293/1/4
f 293/1/4 288/1/4 294/1/4
f 289/3/4 290/3/4 295/3/4
f 295/3/4 290/3/4 296/3/4
f 291/1/4 292/1/4 297/1/4
f 297/1/4 292/1/4 298/1/4
f 299/1/4 300/1/4 301/1/4
f 301/1/4 300/1/4 302/1/4
f 303/1/4 304/1/4 311/1/4
f 304/2/4 305/2/4 312/2/4
f 311/1/4 304/1/4 312/1/4
f 309/3/4 310/3/4 313/3/4
f 313/3/4 310/3/4 314/3/4
f 316/1/4 317/1/4 318/1/4
f 318/1/4 317/1/4 319/1/4
f 311/2/4 312/2/4 320/2/4
f 312/2/4 305/2/4 321/2/4
f 320/2/4 312/2/4 321/2/4
f 314/3/4 315/3/4 323/3/4
f 323/3/4 315/3/4 324/3/4
f 320/1/4 321/1/4 325/1/4
f 321/2/4 305/2/4 326/2/4
f 325/1/4 321/1/4 326/1/4
f 305/1/4 306/1/4 327/1/4
f 326/2/4 305/2/4 327/2/4
f 306/2/4 307/2/4 328/2/4
f 327/1/4 306/1/4 328/1/4
f 307/1/4 308/1/4 329/1/4
f 328/2/4 307/2/4 329/2/4
f 329/1/4 308/1/4 330/1/4
f 322/3/4 323/3/4 331/3/4
f 331/3/4 323/3/4 332/3/4
f 333/3/4 334/3/4 335/3/4
f 335/3/4 334/3/4 336/3/4
f 336/3/4 334/3/4 338/3/4
f 337/3/4 338/3/4 339/3/4
f 338/3/4 334/3/4 340/3/4
f 339/3/4 338/3/4 340/3/4
f 341/3/4 342/3/4 343/3/4
f 343/3/4 342/3/4 344/3/4
f 349/1/5 346/1/5 345/1/5
f 350/1/5 346/1/5 349/1/5
f 351/1/5 348/1/5 347/1/5
f 352/1/5 348/1/5 351/1/5
f 357/1/5 354/1/5 353/1/5
f 358/1/5 354/1/5 357/1/5
f 359/1/5 356/1/5 355/1/5
f 360/1/5 356/1/5 359/1/5
f 365/1/5 362/1/5 361/1/5
f 366/2/5 363/2/5 362/2/5
f 366/1/5 362/1/5 365/1/5
f 367/1/5 364/1/5 363/1/5
f 367/2/5 363/2/5 366/2/5
f 368/1/5 364/1/5 367/1/5
f 369/1/5 365/1/5 361/1/5
f 370/2/5 367/2/5 366/2/5
f 371/2/5 367/2/5 370/2/5
f 372/1/5 364/1/5 368/1/5
f 373/1/5 369/1/5 361/1/5
f 374/2/5 371/2/5 370/2/5
f 374/1/5 369/1/5 373/1/5
f 374/2/5 372/2/5 371/2/5
f 374/2/5 370/2/5 369/2/5
f 375/1/5 364/1/5 372/1/5
f 375/2/5 372/2/5 374/2/5
f 376/1/5 364/1/5 375/1/5
f 381/2/5 378/2/5 377/2/5
f 382/2/5 378/2/5 381/2/5
f 383/2/5 380/2/5 379/2/5
f 384/2/5 380/2/5 383/2/5
f 390/1/5 386/1/5 385/1/5
f 391/1/5 386/1/5 390/1/5
f 394/1/5 388/1/5 387/1/5
f 395/1/5 388/1/5 394/1/5
f 397/1/5 392/1/5 391/1/5
f 397/1/5 390/1/5 389/1/5
f 397/1/5 391/1/5 390/1/5
f 398/1/5 392/1/5 397/1/5
f 399/1/5 396/1/5 395/1/5
f 399/1/5 395/1/5 394/1/5
f 399/1/5 394/1/5 393/1/5
f 400/1/5 396/1/5 399/1/5
f 403/3/5 402/3/5 401/3/5
f 404/3/5 402/3/5 403/3/5
f 409/1/5 407/1/5 406/1/5
f 410/1/5 407/1/5 409/1/5
f 411/1/5 409/1/5 406/1/5
f 412/1/5 407/1/5 410/1/5
f 413/3/5 406/3/5 405/3/5
f 414/1/5 412/1/5 411/1/5
f 414/3/5 406/3/5 413/3/5
f 414/1/5 411/1/5 406/1/5
f 415/1/5 412/1/5 414/1/5
f 416/1/5 407/1/5 412/1/5
f 416/1/5 412/1/5 415/1/5
f 417/3/5 408/3/5 407/3/5
f 417/1/5 407/1/5 416/1/5
f 418/3/5 408/3/5 417/3/5
f 419/3/5 415/3/5 414/3/5
f 420/3/5 415/3/5 419/3/5
f 421/3/5 417/3/5 416/3/5
f 422/3/5 417/3/5 421/3/5
f 425/3/5 424/3/5 423/3/5
f 426/3/5 424/3/5 425/3/5
f 427/1/6 428/1/6 431/1/6
f 431/1/6 428/1/6 432/1/6
f 429/1/6 430/1/6 433/1/6
f 433/1/6 430/1/6 434/1/6
f 435/1/6 436/1/6 439/1/6
f 439/1/6 436/1/6 440/1/6
f 437/1/6 438/1/6 441/1/6
f 441/1/6 438/1/6 442/1/6
f 443/2/6 444/2/6 447/2/6
f 447/2/6 444/2/6 448/2/6
f 445/2/6 446/2/6 449/2/6
f 449/2/6 446/2/6 450/2/6
f 451/1/6 452/1/6 458/1/6
f 458/1/6 452/1/6 459/1/6
f 453/1/6 454/1/6 460/1/6
f 460/1/6 454/1/6 461/1/6
f 461/1/6 454/1/6 462/1/6
f 462/1/6 454/1/6 463/1/6
f 455/1/6 456/1/6 464/1/6
f 464/1/6 456/1/6 465/1/6
f 458/1/6 459/1/6 467/1/6
f 457/1/6 458/1/6 467/1/6
f 459/1/6 460/1/6 467/1/6
f 460/1/6 461/1/6 467/1/6
f 467/1/6 461/1/6 468/1/6
f 468/1/6 461/1/6 469/1/6
f 462/1/6 463/1/6 470/1/6
f 465/1/6 466/1/6 470/1/6
f 464/1/6 465/1/6 470/1/6
f 463/1/6 464/1/6 470/1/6
f 470/1/6 466/1/6 471/1/6
f 471/1/6 466/1/6 472/1/6
f 468/1/6 469/1/6 473/1/6
f 470/1/6 471/1/6 473/1/6
f 469/1/6 470/1/6 473/1/6
f 473/1/6 471/1/6 474/1/6
f 475/3/6 476/3/6 477/3/6
f 477/3/6 476/3/6 478/3/6
f 479/3/6 480/3/6 483/3/6
f 483/3/6 480/3/6 484/3/6
f 481/3/6 482/3/6 485/3/6
f 485/3/6 482/3/6 486/3/6
f 484/3/6 485/3/6 487/3/6
f 487/3/6 485/3/6 488/3/6
f 489/3/6 490/3/6 491/3/6
f 491/3/6 490/3/6 492/3/6
f 489/3/6 491/3/6 493/3/6
f 492/3/6 490/3/6 494/3/6
f 489/3/6 493/3/6 495/3/6
f 493/3/6 494/3/6 495/3/6
f 494/3/6 490/3/6 496/3/6
f 495/3/6 494/3/6 496/3/6
f 497/3/6 498/3/6 499/3/6
f 499/3/6 498/3/6 500/3/6
