# MagicaVoxel @ Ephtracy

# group
o 

# material
mtllib pregnant.vox.mtl
usemtl palette

# normals
vn -1 0 0
vn 1 0 0
vn 0 0 1
vn 0 0 -1
vn 0 -1 0
vn 0 1 0

# texcoords
vt 0.279297 0.5
vt 0.302734 0.5
vt 0.369141 0.5
vt 0.994141 0.5

# verts
v 0.9 3.6 -1.8
v 0.9 3.6 -1.9
v 0.9 3.7 -1.8
v 0.9 3.7 -1.9
v 1 3.6 -1.7
v 1 3.6 -1.8
v 1 3.7 -1.7
v 1 3.7 -1.8
v 1.7 2.9 -1.7
v 1.7 2.9 -2
v 1.7 3 -1.6
v 1.7 3 -1.7
v 1.7 3 -2
v 1.7 3.1 -1.6
v 1.7 3.1 -2
v 1.7 3.4 -1.5
v 1.7 3.4 -1.6
v 1.7 3.4 -2
v 1.7 3.6 -1.5
v 1.7 3.6 -1.7
v 1.7 3.6 -1.8
v 1.7 3.6 -1.9
v 1.7 3.7 -1.7
v 1.7 3.7 -1.8
v 1.7 3.7 -1.9
v 1.7 3.7 -2
v 1.7 3.8 -1.6
v 1.7 3.8 -2
v 1.7 4.2 -1.6
v 1.7 4.2 -2
v 1.8 2 -1.6
v 1.8 2 -1.9
v 1.8 2.2 -1.6
v 1.8 2.2 -1.8
v 1.8 2.5 -1.7
v 1.8 2.5 -1.8
v 1.8 2.6 -1.7
v 1.8 2.6 -1.8
v 1.8 2.9 -1.8
v 1.8 2.9 -1.9
v 1.8 3 -1.5
v 1.8 3 -1.6
v 1.8 3.1 -1.5
v 1.8 3.1 -1.6
v 1.8 3.4 -1.5
v 1.8 3.4 -1.6
v 1.8 3.8 -2
v 1.8 3.8 -2.1
v 1.8 4.2 -1.6
v 1.8 4.2 -2
v 1.8 4.2 -2.1
v 1.8 4.3 -1.6
v 1.8 4.3 -2
v 1.9 3.1 -1.4
v 1.9 3.1 -1.5
v 1.9 3.3 -1.4
v 1.9 3.3 -1.5
v 1.9 3.6 -2.1
v 1.9 3.6 -2.2
v 1.9 3.7 -1.8
v 1.9 3.7 -1.9
v 1.9 3.8 -1.8
v 1.9 3.8 -1.9
v 1.9 3.8 -2.1
v 1.9 4 -2.1
v 1.9 4 -2.2
v 1.9 4.3 -1.7
v 1.9 4.3 -1.9
v 1.9 4.4 -1.7
v 1.9 4.4 -1.9
v 2.1 2 -1.6
v 2.1 2 -1.9
v 2.1 2.2 -1.6
v 2.1 2.2 -1.8
v 2.1 2.5 -1.7
v 2.1 2.5 -1.8
v 2.1 2.6 -1.7
v 2.1 2.6 -1.8
v 2.1 2.9 -1.8
v 2.1 2.9 -1.9
v 2.1 3.4 -1.5
v 2.1 3.4 -1.7
v 2.1 3.6 -1.5
v 2.1 3.6 -1.7
v 2.1 3.8 -2
v 2.1 3.8 -2.1
v 2.1 3.9 -2
v 2.1 3.9 -2.1
v 2.8 3.6 -1.7
v 2.8 3.6 -1.8
v 2.8 3.7 -1.7
v 2.8 3.7 -1.8
v 1.2 3.6 -1.7
v 1.2 3.6 -1.8
v 1.2 3.7 -1.7
v 1.2 3.7 -1.8
v 1.9 2 -1.6
v 1.9 2 -1.9
v 1.9 2.2 -1.6
v 1.9 2.2 -1.8
v 1.9 2.5 -1.7
v 1.9 2.5 -1.8
v 1.9 2.6 -1.7
v 1.9 2.6 -1.8
v 1.9 2.9 -1.8
v 1.9 2.9 -1.9
v 1.9 3.4 -1.5
v 1.9 3.4 -1.7
v 1.9 3.6 -1.5
v 1.9 3.6 -1.7
v 1.9 3.8 -2
v 1.9 3.8 -2.1
v 1.9 3.9 -2
v 1.9 3.9 -2.1
v 2.1 3.1 -1.4
v 2.1 3.1 -1.5
v 2.1 3.3 -1.4
v 2.1 3.3 -1.5
v 2.1 3.6 -2.1
v 2.1 3.6 -2.2
v 2.1 3.7 -1.8
v 2.1 3.7 -1.9
v 2.1 3.8 -1.8
v 2.1 3.8 -1.9
v 2.1 3.8 -2.1
v 2.1 4 -2.1
v 2.1 4 -2.2
v 2.1 4.3 -1.7
v 2.1 4.3 -1.9
v 2.1 4.4 -1.7
v 2.1 4.4 -1.9
v 2.2 2 -1.6
v 2.2 2 -1.9
v 2.2 2.2 -1.6
v 2.2 2.2 -1.8
v 2.2 2.5 -1.7
v 2.2 2.5 -1.8
v 2.2 2.6 -1.7
v 2.2 2.6 -1.8
v 2.2 2.9 -1.8
v 2.2 2.9 -1.9
v 2.2 3 -1.5
v 2.2 3 -1.6
v 2.2 3.1 -1.5
v 2.2 3.1 -1.6
v 2.2 3.4 -1.5
v 2.2 3.4 -1.6
v 2.2 3.8 -2
v 2.2 3.8 -2.1
v 2.2 4.2 -1.6
v 2.2 4.2 -2
v 2.2 4.2 -2.1
v 2.2 4.3 -1.6
v 2.2 4.3 -2
v 2.3 2.9 -1.7
v 2.3 2.9 -2
v 2.3 3 -1.6
v 2.3 3 -1.7
v 2.3 3 -2
v 2.3 3.1 -1.6
v 2.3 3.1 -2
v 2.3 3.4 -1.5
v 2.3 3.4 -1.6
v 2.3 3.4 -2
v 2.3 3.6 -1.5
v 2.3 3.6 -1.7
v 2.3 3.6 -1.8
v 2.3 3.6 -1.9
v 2.3 3.7 -1.7
v 2.3 3.7 -1.8
v 2.3 3.7 -1.9
v 2.3 3.7 -2
v 2.3 3.8 -1.6
v 2.3 3.8 -2
v 2.3 4.2 -1.6
v 2.3 4.2 -2
v 3 3.6 -1.7
v 3 3.6 -1.8
v 3 3.7 -1.7
v 3 3.7 -1.8
v 3.1 3.6 -1.8
v 3.1 3.6 -1.9
v 3.1 3.7 -1.8
v 3.1 3.7 -1.9
v 1.9 3.1 -1.4
v 1.9 3.3 -1.4
v 2.1 3.1 -1.4
v 2.1 3.3 -1.4
v 1.7 3.4 -1.5
v 1.7 3.6 -1.5
v 1.8 3 -1.5
v 1.8 3.1 -1.5
v 1.8 3.4 -1.5
v 1.9 3.1 -1.5
v 1.9 3.3 -1.5
v 1.9 3.4 -1.5
v 1.9 3.6 -1.5
v 2.1 3.1 -1.5
v 2.1 3.3 -1.5
v 2.1 3.4 -1.5
v 2.1 3.6 -1.5
v 2.2 3 -1.5
v 2.2 3.1 -1.5
v 2.2 3.4 -1.5
v 2.3 3.4 -1.5
v 2.3 3.6 -1.5
v 1.7 3 -1.6
v 1.7 3.1 -1.6
v 1.7 3.4 -1.6
v 1.7 3.8 -1.6
v 1.7 4.2 -1.6
v 1.8 2 -1.6
v 1.8 2.2 -1.6
v 1.8 3 -1.6
v 1.8 3.1 -1.6
v 1.8 3.4 -1.6
v 1.8 3.8 -1.6
v 1.8 4.2 -1.6
v 1.8 4.3 -1.6
v 1.9 2 -1.6
v 1.9 2.2 -1.6
v 2.1 2 -1.6
v 2.1 2.2 -1.6
v 2.2 2 -1.6
v 2.2 2.2 -1.6
v 2.2 3 -1.6
v 2.2 3.1 -1.6
v 2.2 3.4 -1.6
v 2.2 3.8 -1.6
v 2.2 4.2 -1.6
v 2.2 4.3 -1.6
v 2.3 3 -1.6
v 2.3 3.1 -1.6
v 2.3 3.4 -1.6
v 2.3 3.8 -1.6
v 2.3 4.2 -1.6
v 1 3.6 -1.7
v 1 3.7 -1.7
v 1.2 3.6 -1.7
v 1.2 3.7 -1.7
v 1.7 2.9 -1.7
v 1.7 3 -1.7
v 1.7 3.6 -1.7
v 1.7 3.7 -1.7
v 1.8 2.5 -1.7
v 1.8 2.6 -1.7
v 1.8 2.9 -1.7
v 1.8 3 -1.7
v 1.8 3.6 -1.7
v 1.8 3.7 -1.7
v 1.9 2.5 -1.7
v 1.9 2.6 -1.7
v 1.9 3.4 -1.7
v 1.9 3.6 -1.7
v 1.9 4.3 -1.7
v 1.9 4.4 -1.7
v 2.1 2.5 -1.7
v 2.1 2.6 -1.7
v 2.1 3.4 -1.7
v 2.1 3.6 -1.7
v 2.1 4.3 -1.7
v 2.1 4.4 -1.7
v 2.2 2.5 -1.7
v 2.2 2.6 -1.7
v 2.2 2.9 -1.7
v 2.2 3 -1.7
v 2.2 3.6 -1.7
v 2.2 3.7 -1.7
v 2.3 2.9 -1.7
v 2.3 3 -1.7
v 2.3 3.6 -1.7
v 2.3 3.7 -1.7
v 2.8 3.6 -1.7
v 2.8 3.7 -1.7
v 3 3.6 -1.7
v 3 3.7 -1.7
v 0.9 3.6 -1.8
v 0.9 3.7 -1.8
v 1 3.6 -1.8
v 1 3.7 -1.8
v 1.2 3.6 -1.8
v 1.2 3.7 -1.8
v 1.5 3.6 -1.8
v 1.5 3.7 -1.8
v 1.7 3.6 -1.8
v 1.7 3.7 -1.8
v 1.8 2.2 -1.8
v 1.8 2.5 -1.8
v 1.8 2.6 -1.8
v 1.8 2.9 -1.8
v 1.9 2.2 -1.8
v 1.9 2.5 -1.8
v 1.9 2.6 -1.8
v 1.9 2.9 -1.8
v 1.9 3.7 -1.8
v 1.9 3.8 -1.8
v 2.1 2.2 -1.8
v 2.1 2.5 -1.8
v 2.1 2.6 -1.8
v 2.1 2.9 -1.8
v 2.1 3.7 -1.8
v 2.1 3.8 -1.8
v 2.2 2.2 -1.8
v 2.2 2.5 -1.8
v 2.2 2.6 -1.8
v 2.2 2.9 -1.8
v 2.3 3.6 -1.8
v 2.3 3.7 -1.8
v 2.5 3.6 -1.8
v 2.5 3.7 -1.8
v 2.8 3.6 -1.8
v 2.8 3.7 -1.8
v 3 3.6 -1.8
v 3 3.7 -1.8
v 3.1 3.6 -1.8
v 3.1 3.7 -1.8
v 1.9 3.6 -2.1
v 1.9 3.8 -2.1
v 1.9 3.9 -2.1
v 2.1 3.6 -2.1
v 2.1 3.8 -2.1
v 2.1 3.9 -2.1
v 0.9 3.6 -1.9
v 0.9 3.7 -1.9
v 1.5 3.6 -1.9
v 1.5 3.7 -1.9
v 1.7 3.6 -1.9
v 1.7 3.7 -1.9
v 1.8 2 -1.9
v 1.8 2.9 -1.9
v 1.9 2 -1.9
v 1.9 2.9 -1.9
v 1.9 3.7 -1.9
v 1.9 3.8 -1.9
v 1.9 4.3 -1.9
v 1.9 4.4 -1.9
v 2.1 2 -1.9
v 2.1 2.9 -1.9
v 2.1 3.7 -1.9
v 2.1 3.8 -1.9
v 2.1 4.3 -1.9
v 2.1 4.4 -1.9
v 2.2 2 -1.9
v 2.2 2.9 -1.9
v 2.3 3.6 -1.9
v 2.3 3.7 -1.9
v 2.5 3.6 -1.9
v 2.5 3.7 -1.9
v 3.1 3.6 -1.9
v 3.1 3.7 -1.9
v 1.7 2.9 -2
v 1.7 3 -2
v 1.7 3.1 -2
v 1.7 3.4 -2
v 1.7 3.7 -2
v 1.7 3.8 -2
v 1.7 4.2 -2
v 1.8 2.9 -2
v 1.8 3 -2
v 1.8 3.6 -2
v 1.8 3.7 -2
v 1.8 3.8 -2
v 1.8 4.2 -2
v 1.8 4.3 -2
v 1.9 3.8 -2
v 1.9 3.9 -2
v 2.1 3.8 -2
v 2.1 3.9 -2
v 2.2 2.9 -2
v 2.2 3 -2
v 2.2 3.6 -2
v 2.2 3.7 -2
v 2.2 3.8 -2
v 2.2 4.2 -2
v 2.2 4.3 -2
v 2.3 2.9 -2
v 2.3 3 -2
v 2.3 3.1 -2
v 2.3 3.4 -2
v 2.3 3.7 -2
v 2.3 3.8 -2
v 2.3 4.2 -2
v 1.8 3.8 -2.1
v 1.8 4.2 -2.1
v 1.9 3.8 -2.1
v 1.9 4 -2.1
v 2.1 3.8 -2.1
v 2.1 4 -2.1
v 2.2 3.8 -2.1
v 2.2 4.2 -2.1
v 1.9 3.6 -2.2
v 1.9 4 -2.2
v 2.1 3.6 -2.2
v 2.1 4 -2.2
v 1.8 2 -1.6
v 1.9 2 -1.6
v 2.1 2 -1.6
v 2.2 2 -1.6
v 1.8 2 -1.9
v 1.9 2 -1.9
v 2.1 2 -1.9
v 2.2 2 -1.9
v 1.8 2.5 -1.7
v 1.9 2.5 -1.7
v 2.1 2.5 -1.7
v 2.2 2.5 -1.7
v 1.8 2.5 -1.8
v 1.9 2.5 -1.8
v 2.1 2.5 -1.8
v 2.2 2.5 -1.8
v 1.7 2.9 -1.7
v 1.8 2.9 -1.7
v 2.2 2.9 -1.7
v 2.3 2.9 -1.7
v 1.8 2.9 -1.8
v 1.9 2.9 -1.8
v 2.1 2.9 -1.8
v 2.2 2.9 -1.8
v 1.8 2.9 -1.9
v 1.9 2.9 -1.9
v 2.1 2.9 -1.9
v 2.2 2.9 -1.9
v 1.7 2.9 -2
v 1.8 2.9 -2
v 2.2 2.9 -2
v 2.3 2.9 -2
v 1.8 3 -1.5
v 2.2 3 -1.5
v 1.7 3 -1.6
v 1.8 3 -1.6
v 2.2 3 -1.6
v 2.3 3 -1.6
v 1.7 3 -1.7
v 1.8 3 -1.7
v 2.2 3 -1.7
v 2.3 3 -1.7
v 1.9 3.1 -1.4
v 2.1 3.1 -1.4
v 1.9 3.1 -1.5
v 2.1 3.1 -1.5
v 1.7 3.4 -1.5
v 1.8 3.4 -1.5
v 2.2 3.4 -1.5
v 2.3 3.4 -1.5
v 1.7 3.4 -1.6
v 1.8 3.4 -1.6
v 2.2 3.4 -1.6
v 2.3 3.4 -1.6
v 1 3.6 -1.7
v 1.2 3.6 -1.7
v 2.8 3.6 -1.7
v 3 3.6 -1.7
v 0.9 3.6 -1.8
v 1 3.6 -1.8
v 1.2 3.6 -1.8
v 1.5 3.6 -1.8
v 1.7 3.6 -1.8
v 2.3 3.6 -1.8
v 2.5 3.6 -1.8
v 2.8 3.6 -1.8
v 3 3.6 -1.8
v 3.1 3.6 -1.8
v 0.9 3.6 -1.9
v 1.5 3.6 -1.9
v 1.7 3.6 -1.9
v 2.3 3.6 -1.9
v 2.5 3.6 -1.9
v 3.1 3.6 -1.9
v 1.9 3.6 -2.1
v 2.1 3.6 -2.1
v 1.9 3.6 -2.2
v 2.1 3.6 -2.2
v 1.7 3.8 -1.6
v 1.8 3.8 -1.6
v 2.2 3.8 -1.6
v 2.3 3.8 -1.6
v 1.9 3.8 -1.8
v 2.1 3.8 -1.8
v 1.9 3.8 -1.9
v 2.1 3.8 -1.9
v 1.7 3.8 -2
v 1.8 3.8 -2
v 1.9 3.8 -2
v 2.1 3.8 -2
v 2.2 3.8 -2
v 2.3 3.8 -2
v 1.8 3.8 -2.1
v 1.9 3.8 -2.1
v 2.1 3.8 -2.1
v 2.2 3.8 -2.1
v 1.9 3.9 -2
v 2.1 3.9 -2
v 1.9 3.9 -2.1
v 2.1 3.9 -2.1
v 1.8 2.2 -1.6
v 1.9 2.2 -1.6
v 2.1 2.2 -1.6
v 2.2 2.2 -1.6
v 1.8 2.2 -1.8
v 1.9 2.2 -1.8
v 2.1 2.2 -1.8
v 2.2 2.2 -1.8
v 1.8 2.6 -1.7
v 1.9 2.6 -1.7
v 2.1 2.6 -1.7
v 2.2 2.6 -1.7
v 1.8 2.6 -1.8
v 1.9 2.6 -1.8
v 2.1 2.6 -1.8
v 2.2 2.6 -1.8
v 1.9 3.3 -1.4
v 2.1 3.3 -1.4
v 1.9 3.3 -1.5
v 2.1 3.3 -1.5
v 1.9 3.4 -1.5
v 2.1 3.4 -1.5
v 1.9 3.4 -1.7
v 2.1 3.4 -1.7
v 1.7 3.6 -1.5
v 1.9 3.6 -1.5
v 2.1 3.6 -1.5
v 2.3 3.6 -1.5
v 1.7 3.6 -1.7
v 1.8 3.6 -1.7
v 1.9 3.6 -1.7
v 2.1 3.6 -1.7
v 2.2 3.6 -1.7
v 2.3 3.6 -1.7
v 1 3.7 -1.7
v 1.2 3.7 -1.7
v 1.7 3.7 -1.7
v 1.8 3.7 -1.7
v 2.2 3.7 -1.7
v 2.3 3.7 -1.7
v 2.8 3.7 -1.7
v 3 3.7 -1.7
v 0.9 3.7 -1.8
v 1 3.7 -1.8
v 1.2 3.7 -1.8
v 1.5 3.7 -1.8
v 1.7 3.7 -1.8
v 1.9 3.7 -1.8
v 2.1 3.7 -1.8
v 2.3 3.7 -1.8
v 2.5 3.7 -1.8
v 2.8 3.7 -1.8
v 3 3.7 -1.8
v 3.1 3.7 -1.8
v 0.9 3.7 -1.9
v 1.5 3.7 -1.9
v 1.7 3.7 -1.9
v 1.9 3.7 -1.9
v 2.1 3.7 -1.9
v 2.3 3.7 -1.9
v 2.5 3.7 -1.9
v 3.1 3.7 -1.9
v 1.7 3.7 -2
v 1.8 3.7 -2
v 2.2 3.7 -2
v 2.3 3.7 -2
v 1.9 4 -2.1
v 2.1 4 -2.1
v 1.9 4 -2.2
v 2.1 4 -2.2
v 1.7 4.2 -1.6
v 1.8 4.2 -1.6
v 2.2 4.2 -1.6
v 2.3 4.2 -1.6
v 1.7 4.2 -2
v 1.8 4.2 -2
v 2.2 4.2 -2
v 2.3 4.2 -2
v 1.8 4.2 -2.1
v 2.2 4.2 -2.1
v 1.8 4.3 -1.6
v 2.2 4.3 -1.6
v 1.9 4.3 -1.7
v 2.1 4.3 -1.7
v 1.9 4.3 -1.9
v 2.1 4.3 -1.9
v 1.8 4.3 -2
v 2.2 4.3 -2
v 1.9 4.4 -1.7
v 2.1 4.4 -1.7
v 1.9 4.4 -1.9
v 2.1 4.4 -1.9

# faces
f 3/3/1 2/3/1 1/3/1
f 4/3/1 2/3/1 3/3/1
f 7/3/1 6/3/1 5/3/1
f 8/3/1 6/3/1 7/3/1
f 12/3/1 10/3/1 9/3/1
f 13/3/1 10/3/1 12/3/1
f 14/1/1 12/1/1 11/1/1
f 14/1/1 13/1/1 12/1/1
f 15/1/1 13/1/1 14/1/1
f 17/3/1 15/3/1 14/3/1
f 18/3/1 15/3/1 17/3/1
f 19/1/1 17/1/1 16/1/1
f 19/1/1 18/1/1 17/1/1
f 20/1/1 18/1/1 19/1/1
f 21/1/1 18/1/1 20/1/1
f 22/1/1 18/1/1 21/1/1
f 23/1/1 21/1/1 20/1/1
f 24/1/1 21/1/1 23/1/1
f 25/1/1 18/1/1 22/1/1
f 26/1/1 18/1/1 25/1/1
f 29/4/1 28/4/1 27/4/1
f 30/4/1 28/4/1 29/4/1
f 33/3/1 32/3/1 31/3/1
f 34/3/1 32/3/1 33/3/1
f 36/3/1 32/3/1 34/3/1
f 37/3/1 36/3/1 35/3/1
f 38/3/1 32/3/1 36/3/1
f 38/3/1 36/3/1 37/3/1
f 39/3/1 32/3/1 38/3/1
f 40/3/1 32/3/1 39/3/1
f 43/1/1 42/1/1 41/1/1
f 44/1/1 42/1/1 43/1/1
f 45/3/1 44/3/1 43/3/1
f 46/3/1 44/3/1 45/3/1
f 50/4/1 48/4/1 47/4/1
f 51/4/1 48/4/1 50/4/1
f 52/4/1 50/4/1 49/4/1
f 53/4/1 50/4/1 52/4/1
f 56/3/1 55/3/1 54/3/1
f 57/3/1 55/3/1 56/3/1
f 62/3/1 61/3/1 60/3/1
f 63/3/1 61/3/1 62/3/1
f 64/4/1 59/4/1 58/4/1
f 65/4/1 59/4/1 64/4/1
f 66/4/1 59/4/1 65/4/1
f 69/4/1 68/4/1 67/4/1
f 70/4/1 68/4/1 69/4/1
f 73/3/1 72/3/1 71/3/1
f 74/3/1 72/3/1 73/3/1
f 76/3/1 72/3/1 74/3/1
f 77/3/1 76/3/1 75/3/1
f 78/3/1 72/3/1 76/3/1
f 78/3/1 76/3/1 77/3/1
f 79/3/1 72/3/1 78/3/1
f 80/3/1 72/3/1 79/3/1
f 83/1/1 82/1/1 81/1/1
f 84/1/1 82/1/1 83/1/1
f 87/4/1 86/4/1 85/4/1
f 88/4/1 86/4/1 87/4/1
f 91/3/1 90/3/1 89/3/1
f 92/3/1 90/3/1 91/3/1
f 93/3/2 94/3/2 95/3/2
f 95/3/2 94/3/2 96/3/2
f 97/3/2 98/3/2 99/3/2
f 99/3/2 98/3/2 100/3/2
f 100/3/2 98/3/2 102/3/2
f 101/3/2 102/3/2 103/3/2
f 102/3/2 98/3/2 104/3/2
f 103/3/2 102/3/2 104/3/2
f 104/3/2 98/3/2 105/3/2
f 105/3/2 98/3/2 106/3/2
f 107/1/2 108/1/2 109/1/2
f 109/1/2 108/1/2 110/1/2
f 111/4/2 112/4/2 113/4/2
f 113/4/2 112/4/2 114/4/2
f 115/3/2 116/3/2 117/3/2
f 117/3/2 116/3/2 118/3/2
f 121/3/2 122/3/2 123/3/2
f 123/3/2 122/3/2 124/3/2
f 119/4/2 120/4/2 125/4/2
f 125/4/2 120/4/2 126/4/2
f 126/4/2 120/4/2 127/4/2
f 128/4/2 129/4/2 130/4/2
f 130/4/2 129/4/2 131/4/2
f 132/3/2 133/3/2 134/3/2
f 134/3/2 133/3/2 135/3/2
f 135/3/2 133/3/2 137/3/2
f 136/3/2 137/3/2 138/3/2
f 137/3/2 133/3/2 139/3/2
f 138/3/2 137/3/2 139/3/2
f 139/3/2 133/3/2 140/3/2
f 140/3/2 133/3/2 141/3/2
f 142/1/2 143/1/2 144/1/2
f 144/1/2 143/1/2 145/1/2
f 144/3/2 145/3/2 146/3/2
f 146/3/2 145/3/2 147/3/2
f 148/4/2 149/4/2 151/4/2
f 151/4/2 149/4/2 152/4/2
f 150/4/2 151/4/2 153/4/2
f 153/4/2 151/4/2 154/4/2
f 155/3/2 156/3/2 158/3/2
f 158/3/2 156/3/2 159/3/2
f 157/1/2 158/1/2 160/1/2
f 158/1/2 159/1/2 160/1/2
f 160/1/2 159/1/2 161/1/2
f 160/3/2 161/3/2 163/3/2
f 163/3/2 161/3/2 164/3/2
f 162/1/2 163/1/2 165/1/2
f 163/1/2 164/1/2 165/1/2
f 165/1/2 164/1/2 166/1/2
f 166/1/2 164/1/2 167/1/2
f 167/1/2 164/1/2 168/1/2
f 166/1/2 167/1/2 169/1/2
f 169/1/2 167/1/2 170/1/2
f 168/1/2 164/1/2 171/1/2
f 171/1/2 164/1/2 172/1/2
f 173/4/2 174/4/2 175/4/2
f 175/4/2 174/4/2 176/4/2
f 177/3/2 178/3/2 179/3/2
f 179/3/2 178/3/2 180/3/2
f 181/3/2 182/3/2 183/3/2
f 183/3/2 182/3/2 184/3/2
f 187/3/3 186/3/3 185/3/3
f 188/3/3 186/3/3 187/3/3
f 193/1/3 190/1/3 189/1/3
f 194/1/3 192/1/3 191/1/3
f 194/3/3 193/3/3 192/3/3
f 195/3/3 193/3/3 194/3/3
f 196/1/3 190/1/3 193/1/3
f 196/3/3 193/3/3 195/3/3
f 197/1/3 190/1/3 196/1/3
f 198/1/3 194/1/3 191/1/3
f 199/3/3 196/3/3 195/3/3
f 200/3/3 196/3/3 199/3/3
f 202/1/3 198/1/3 191/1/3
f 203/3/3 199/3/3 198/3/3
f 203/1/3 198/1/3 202/1/3
f 203/3/3 200/3/3 199/3/3
f 204/1/3 201/1/3 200/1/3
f 204/3/3 200/3/3 203/3/3
f 205/1/3 201/1/3 204/1/3
f 206/1/3 201/1/3 205/1/3
f 214/1/3 208/1/3 207/1/3
f 215/3/3 209/3/3 208/3/3
f 215/1/3 208/1/3 214/1/3
f 216/3/3 209/3/3 215/3/3
f 217/4/3 211/4/3 210/4/3
f 218/4/3 211/4/3 217/4/3
f 220/3/3 213/3/3 212/3/3
f 221/3/3 213/3/3 220/3/3
f 224/3/3 223/3/3 222/3/3
f 225/3/3 223/3/3 224/3/3
f 229/3/3 218/3/3 217/3/3
f 230/4/3 219/4/3 218/4/3
f 230/3/3 218/3/3 229/3/3
f 231/4/3 219/4/3 230/4/3
f 232/1/3 227/1/3 226/1/3
f 233/3/3 228/3/3 227/3/3
f 233/1/3 227/1/3 232/1/3
f 234/3/3 228/3/3 233/3/3
f 235/4/3 230/4/3 229/4/3
f 236/4/3 230/4/3 235/4/3
f 239/3/3 238/3/3 237/3/3
f 240/3/3 238/3/3 239/3/3
f 247/3/3 242/3/3 241/3/3
f 248/3/3 242/3/3 247/3/3
f 249/1/3 244/1/3 243/1/3
f 250/1/3 244/1/3 249/1/3
f 251/3/3 246/3/3 245/3/3
f 252/3/3 246/3/3 251/3/3
f 254/3/3 250/3/3 249/3/3
f 259/1/3 254/1/3 253/1/3
f 260/3/3 250/3/3 254/3/3
f 260/1/3 254/1/3 259/1/3
f 261/4/3 256/4/3 255/4/3
f 262/4/3 256/4/3 261/4/3
f 263/3/3 258/3/3 257/3/3
f 264/3/3 258/3/3 263/3/3
f 265/1/3 248/1/3 247/1/3
f 266/1/3 248/1/3 265/1/3
f 267/3/3 250/3/3 260/3/3
f 268/3/3 250/3/3 267/3/3
f 269/3/3 266/3/3 265/3/3
f 270/3/3 266/3/3 269/3/3
f 271/1/3 268/1/3 267/1/3
f 272/1/3 268/1/3 271/1/3
f 275/3/3 274/3/3 273/3/3
f 276/3/3 274/3/3 275/3/3
f 279/3/3 278/3/3 277/3/3
f 280/3/3 278/3/3 279/3/3
f 283/3/3 282/3/3 281/3/3
f 284/3/3 282/3/3 283/3/3
f 285/1/3 284/1/3 283/1/3
f 286/1/3 284/1/3 285/1/3
f 291/3/3 288/3/3 287/3/3
f 292/3/3 288/3/3 291/3/3
f 293/3/3 290/3/3 289/3/3
f 294/3/3 290/3/3 293/3/3
f 301/3/3 296/3/3 295/3/3
f 302/3/3 296/3/3 301/3/3
f 303/3/3 298/3/3 297/3/3
f 304/3/3 298/3/3 303/3/3
f 305/3/3 300/3/3 299/3/3
f 306/3/3 300/3/3 305/3/3
f 309/1/3 308/1/3 307/1/3
f 310/1/3 308/1/3 309/1/3
f 311/3/3 310/3/3 309/3/3
f 312/3/3 310/3/3 311/3/3
f 315/3/3 314/3/3 313/3/3
f 316/3/3 314/3/3 315/3/3
f 320/4/3 318/4/3 317/4/3
f 320/4/3 319/4/3 318/4/3
f 321/4/3 319/4/3 320/4/3
f 322/4/3 319/4/3 321/4/3
f 323/3/4 324/3/4 325/3/4
f 325/3/4 324/3/4 326/3/4
f 325/1/4 326/1/4 327/1/4
f 327/1/4 326/1/4 328/1/4
f 329/3/4 330/3/4 331/3/4
f 331/3/4 330/3/4 332/3/4
f 333/3/4 334/3/4 339/3/4
f 339/3/4 334/3/4 340/3/4
f 335/4/4 336/4/4 341/4/4
f 341/4/4 336/4/4 342/4/4
f 337/3/4 338/3/4 343/3/4
f 343/3/4 338/3/4 344/3/4
f 345/1/4 346/1/4 347/1/4
f 347/1/4 346/1/4 348/1/4
f 347/3/4 348/3/4 349/3/4
f 349/3/4 348/3/4 350/3/4
f 351/3/4 352/3/4 358/3/4
f 352/1/4 353/1/4 359/1/4
f 358/3/4 352/3/4 359/3/4
f 354/1/4 355/1/4 360/1/4
f 360/1/4 355/1/4 361/1/4
f 356/4/4 357/4/4 362/4/4
f 362/4/4 357/4/4 363/4/4
f 365/3/4 366/3/4 367/3/4
f 367/3/4 366/3/4 368/3/4
f 358/1/4 359/1/4 369/1/4
f 359/1/4 353/1/4 370/1/4
f 369/1/4 359/1/4 370/1/4
f 360/3/4 361/3/4 371/3/4
f 354/1/4 360/1/4 371/1/4
f 371/3/4 361/3/4 372/3/4
f 363/4/4 364/4/4 374/4/4
f 374/4/4 364/4/4 375/4/4
f 369/3/4 370/3/4 376/3/4
f 370/1/4 353/1/4 377/1/4
f 376/3/4 370/3/4 377/3/4
f 353/3/4 354/3/4 378/3/4
f 377/1/4 353/1/4 378/1/4
f 371/1/4 372/1/4 379/1/4
f 378/3/4 354/3/4 379/3/4
f 354/1/4 371/1/4 379/1/4
f 379/1/4 372/1/4 380/1/4
f 373/4/4 374/4/4 381/4/4
f 381/4/4 374/4/4 382/4/4
f 383/4/4 384/4/4 385/4/4
f 385/4/4 384/4/4 386/4/4
f 386/4/4 384/4/4 388/4/4
f 387/4/4 388/4/4 389/4/4
f 388/4/4 384/4/4 390/4/4
f 389/4/4 388/4/4 390/4/4
f 391/4/4 392/4/4 393/4/4
f 393/4/4 392/4/4 394/4/4
f 399/3/5 396/3/5 395/3/5
f 400/3/5 396/3/5 399/3/5
f 401/3/5 398/3/5 397/3/5
f 402/3/5 398/3/5 401/3/5
f 407/3/5 404/3/5 403/3/5
f 408/3/5 404/3/5 407/3/5
f 409/3/5 406/3/5 405/3/5
f 410/3/5 406/3/5 409/3/5
f 415/3/5 412/3/5 411/3/5
f 415/1/5 413/1/5 412/1/5
f 416/1/5 413/1/5 415/1/5
f 417/1/5 413/1/5 416/1/5
f 418/3/5 414/3/5 413/3/5
f 418/1/5 413/1/5 417/1/5
f 419/3/5 415/3/5 411/3/5
f 420/1/5 417/1/5 416/1/5
f 421/1/5 417/1/5 420/1/5
f 422/3/5 414/3/5 418/3/5
f 423/3/5 419/3/5 411/3/5
f 424/1/5 422/1/5 421/1/5
f 424/3/5 419/3/5 423/3/5
f 424/1/5 421/1/5 420/1/5
f 424/1/5 420/1/5 419/1/5
f 425/3/5 414/3/5 422/3/5
f 425/1/5 422/1/5 424/1/5
f 426/3/5 414/3/5 425/3/5
f 430/1/5 428/1/5 427/1/5
f 431/1/5 428/1/5 430/1/5
f 433/1/5 430/1/5 429/1/5
f 433/1/5 432/1/5 431/1/5
f 433/1/5 431/1/5 430/1/5
f 434/1/5 432/1/5 433/1/5
f 435/1/5 432/1/5 434/1/5
f 436/1/5 432/1/5 435/1/5
f 439/3/5 438/3/5 437/3/5
f 440/3/5 438/3/5 439/3/5
f 445/1/5 442/1/5 441/1/5
f 446/1/5 442/1/5 445/1/5
f 447/1/5 444/1/5 443/1/5
f 448/1/5 444/1/5 447/1/5
f 454/3/5 450/3/5 449/3/5
f 455/3/5 450/3/5 454/3/5
f 460/3/5 452/3/5 451/3/5
f 461/3/5 452/3/5 460/3/5
f 463/3/5 454/3/5 453/3/5
f 463/3/5 455/3/5 454/3/5
f 463/3/5 456/3/5 455/3/5
f 464/1/5 457/1/5 456/1/5
f 464/3/5 456/3/5 463/3/5
f 465/1/5 457/1/5 464/1/5
f 466/1/5 459/1/5 458/1/5
f 467/3/5 462/3/5 461/3/5
f 467/1/5 459/1/5 466/1/5
f 467/3/5 461/3/5 460/3/5
f 467/3/5 460/3/5 459/3/5
f 468/3/5 462/3/5 467/3/5
f 471/4/5 470/4/5 469/4/5
f 472/4/5 470/4/5 471/4/5
f 477/3/5 475/3/5 474/3/5
f 478/3/5 475/3/5 477/3/5
f 479/3/5 477/3/5 474/3/5
f 480/3/5 475/3/5 478/3/5
f 481/4/5 474/4/5 473/4/5
f 482/3/5 480/3/5 479/3/5
f 482/4/5 474/4/5 481/4/5
f 482/3/5 479/3/5 474/3/5
f 483/3/5 480/3/5 482/3/5
f 484/3/5 475/3/5 480/3/5
f 484/3/5 480/3/5 483/3/5
f 485/4/5 476/4/5 475/4/5
f 485/3/5 475/3/5 484/3/5
f 486/4/5 476/4/5 485/4/5
f 487/4/5 483/4/5 482/4/5
f 488/4/5 483/4/5 487/4/5
f 489/4/5 485/4/5 484/4/5
f 490/4/5 485/4/5 489/4/5
f 493/4/5 492/4/5 491/4/5
f 494/4/5 492/4/5 493/4/5
f 495/3/6 496/3/6 499/3/6
f 499/3/6 496/3/6 500/3/6
f 497/3/6 498/3/6 501/3/6
f 501/3/6 498/3/6 502/3/6
f 503/3/6 504/3/6 507/3/6
f 507/3/6 504/3/6 508/3/6
f 505/3/6 506/3/6 509/3/6
f 509/3/6 506/3/6 510/3/6
f 511/3/6 512/3/6 513/3/6
f 513/3/6 512/3/6 514/3/6
f 515/3/6 516/3/6 517/3/6
f 517/3/6 516/3/6 518/3/6
f 519/1/6 520/1/6 523/1/6
f 523/1/6 520/1/6 524/1/6
f 524/1/6 520/1/6 525/1/6
f 521/1/6 522/1/6 526/1/6
f 526/1/6 522/1/6 527/1/6
f 527/1/6 522/1/6 528/1/6
f 529/3/6 530/3/6 538/3/6
f 538/3/6 530/3/6 539/3/6
f 531/1/6 532/1/6 541/1/6
f 532/3/6 533/3/6 542/3/6
f 542/3/6 533/3/6 543/3/6
f 533/1/6 534/1/6 544/1/6
f 535/3/6 536/3/6 546/3/6
f 546/3/6 536/3/6 547/3/6
f 539/3/6 540/3/6 549/3/6
f 537/3/6 538/3/6 549/3/6
f 538/3/6 539/3/6 549/3/6
f 540/1/6 541/1/6 550/1/6
f 549/3/6 540/3/6 550/3/6
f 541/1/6 532/1/6 551/1/6
f 550/1/6 541/1/6 551/1/6
f 532/3/6 542/3/6 552/3/6
f 543/3/6 533/3/6 553/3/6
f 544/1/6 545/1/6 554/1/6
f 533/1/6 544/1/6 554/1/6
f 547/3/6 548/3/6 555/3/6
f 554/1/6 545/1/6 555/1/6
f 546/3/6 547/3/6 555/3/6
f 545/3/6 546/3/6 555/3/6
f 555/3/6 548/3/6 556/3/6
f 551/1/6 532/1/6 557/1/6
f 552/3/6 553/3/6 558/3/6
f 557/1/6 532/1/6 558/1/6
f 532/3/6 552/3/6 558/3/6
f 533/1/6 554/1/6 559/1/6
f 558/3/6 553/3/6 559/3/6
f 553/3/6 533/3/6 559/3/6
f 559/1/6 554/1/6 560/1/6
f 561/4/6 562/4/6 563/4/6
f 563/4/6 562/4/6 564/4/6
f 565/4/6 566/4/6 569/4/6
f 569/4/6 566/4/6 570/4/6
f 567/4/6 568/4/6 571/4/6
f 571/4/6 568/4/6 572/4/6
f 570/4/6 571/4/6 573/4/6
f 573/4/6 571/4/6 574/4/6
f 575/4/6 576/4/6 577/4/6
f 577/4/6 576/4/6 578/4/6
f 575/4/6 577/4/6 579/4/6
f 578/4/6 576/4/6 580/4/6
f 575/4/6 579/4/6 581/4/6
f 579/4/6 580/4/6 581/4/6
f 580/4/6 576/4/6 582/4/6
f 581/4/6 580/4/6 582/4/6
f 583/4/6 584/4/6 585/4/6
f 585/4/6 584/4/6 586/4/6
