# MagicaVoxel @ Ephtracy

# group
o 

# material
mtllib princess.mtl
usemtl palette

# normals
vn -1 0 0
vn 1 0 0
vn 0 0 1
vn 0 0 -1
vn 0 -1 0
vn 0 1 0

# texcoords
vt 0.0214844 0.5
vt 0.302734 0.5
vt 0.369141 0.5
vt 0.994141 0.5

# verts
v 0.9 3.6 -1.8
v 0.9 3.6 -1.9
v 0.9 3.7 -1.8
v 0.9 3.7 -1.9
v 1 3.6 -1.7
v 1 3.6 -1.8
v 1 3.7 -1.7
v 1 3.7 -1.8
v 1.7 2.9 -1.7
v 1.7 2.9 -2
v 1.7 3 -1.7
v 1.7 3 -2
v 1.7 3.1 -1.7
v 1.7 3.1 -2
v 1.7 3.4 -1.6
v 1.7 3.4 -1.7
v 1.7 3.4 -2
v 1.7 3.5 -1.7
v 1.7 3.5 -2
v 1.7 3.6 -1.6
v 1.7 3.6 -1.7
v 1.7 3.6 -1.8
v 1.7 3.6 -1.9
v 1.7 3.7 -1.7
v 1.7 3.7 -1.8
v 1.7 3.7 -1.9
v 1.7 3.7 -2
v 1.7 3.8 -1.6
v 1.7 3.8 -2
v 1.7 4.2 -1.6
v 1.7 4.2 -2
v 1.8 2 -1.6
v 1.8 2 -1.9
v 1.8 2.2 -1.6
v 1.8 2.2 -1.8
v 1.8 2.5 -1.7
v 1.8 2.5 -1.8
v 1.8 2.5 -1.9
v 1.8 2.6 -1.7
v 1.8 2.6 -1.8
v 1.8 2.6 -1.9
v 1.8 2.9 -1.8
v 1.8 2.9 -1.9
v 1.8 3.8 -2
v 1.8 3.8 -2.1
v 1.8 4.2 -1.6
v 1.8 4.2 -2
v 1.8 4.2 -2.1
v 1.8 4.3 -1.6
v 1.8 4.3 -2
v 1.9 3.6 -2.1
v 1.9 3.6 -2.2
v 1.9 3.7 -1.8
v 1.9 3.7 -1.9
v 1.9 3.8 -1.8
v 1.9 3.8 -1.9
v 1.9 3.8 -2.1
v 1.9 4 -2.1
v 1.9 4 -2.2
v 1.9 4.3 -1.7
v 1.9 4.3 -1.9
v 1.9 4.4 -1.7
v 1.9 4.4 -1.9
v 2.1 2 -1.6
v 2.1 2 -1.9
v 2.1 2.2 -1.6
v 2.1 2.2 -1.8
v 2.1 2.5 -1.7
v 2.1 2.5 -1.8
v 2.1 2.5 -1.9
v 2.1 2.6 -1.7
v 2.1 2.6 -1.8
v 2.1 2.6 -1.9
v 2.1 2.9 -1.8
v 2.1 2.9 -1.9
v 2.1 3.4 -1.6
v 2.1 3.4 -1.7
v 2.1 3.5 -1.7
v 2.1 3.6 -1.6
v 2.1 3.6 -1.7
v 2.1 3.8 -2
v 2.1 3.8 -2.1
v 2.1 3.9 -2
v 2.1 3.9 -2.1
v 2.8 3.6 -1.7
v 2.8 3.6 -1.8
v 2.8 3.7 -1.7
v 2.8 3.7 -1.8
v 1.2 3.6 -1.7
v 1.2 3.6 -1.8
v 1.2 3.7 -1.7
v 1.2 3.7 -1.8
v 1.9 2 -1.6
v 1.9 2 -1.9
v 1.9 2.2 -1.6
v 1.9 2.2 -1.8
v 1.9 2.5 -1.7
v 1.9 2.5 -1.8
v 1.9 2.5 -1.9
v 1.9 2.6 -1.7
v 1.9 2.6 -1.8
v 1.9 2.6 -1.9
v 1.9 2.9 -1.8
v 1.9 2.9 -1.9
v 1.9 3.4 -1.6
v 1.9 3.4 -1.7
v 1.9 3.5 -1.7
v 1.9 3.6 -1.6
v 1.9 3.6 -1.7
v 1.9 3.8 -2
v 1.9 3.8 -2.1
v 1.9 3.9 -2
v 1.9 3.9 -2.1
v 2.1 3.6 -2.1
v 2.1 3.6 -2.2
v 2.1 3.7 -1.8
v 2.1 3.7 -1.9
v 2.1 3.8 -1.8
v 2.1 3.8 -1.9
v 2.1 3.8 -2.1
v 2.1 4 -2.1
v 2.1 4 -2.2
v 2.1 4.3 -1.7
v 2.1 4.3 -1.9
v 2.1 4.4 -1.7
v 2.1 4.4 -1.9
v 2.2 2 -1.6
v 2.2 2 -1.9
v 2.2 2.2 -1.6
v 2.2 2.2 -1.8
v 2.2 2.5 -1.7
v 2.2 2.5 -1.8
v 2.2 2.5 -1.9
v 2.2 2.6 -1.7
v 2.2 2.6 -1.8
v 2.2 2.6 -1.9
v 2.2 2.9 -1.8
v 2.2 2.9 -1.9
v 2.2 3.8 -2
v 2.2 3.8 -2.1
v 2.2 4.2 -1.6
v 2.2 4.2 -2
v 2.2 4.2 -2.1
v 2.2 4.3 -1.6
v 2.2 4.3 -2
v 2.3 2.9 -1.7
v 2.3 2.9 -2
v 2.3 3 -1.7
v 2.3 3 -2
v 2.3 3.1 -1.7
v 2.3 3.1 -2
v 2.3 3.4 -1.6
v 2.3 3.4 -1.7
v 2.3 3.4 -2
v 2.3 3.5 -1.7
v 2.3 3.5 -2
v 2.3 3.6 -1.6
v 2.3 3.6 -1.7
v 2.3 3.6 -1.8
v 2.3 3.6 -1.9
v 2.3 3.7 -1.7
v 2.3 3.7 -1.8
v 2.3 3.7 -1.9
v 2.3 3.7 -2
v 2.3 3.8 -1.6
v 2.3 3.8 -2
v 2.3 4.2 -1.6
v 2.3 4.2 -2
v 3 3.6 -1.7
v 3 3.6 -1.8
v 3 3.7 -1.7
v 3 3.7 -1.8
v 3.1 3.6 -1.8
v 3.1 3.6 -1.9
v 3.1 3.7 -1.8
v 3.1 3.7 -1.9
v 1.7 3.4 -1.6
v 1.7 3.6 -1.6
v 1.7 3.8 -1.6
v 1.7 4.2 -1.6
v 1.8 2 -1.6
v 1.8 2.2 -1.6
v 1.8 3.8 -1.6
v 1.8 4.1 -1.6
v 1.8 4.2 -1.6
v 1.8 4.3 -1.6
v 1.9 2 -1.6
v 1.9 2.2 -1.6
v 1.9 3.4 -1.6
v 1.9 3.6 -1.6
v 2.1 2 -1.6
v 2.1 2.2 -1.6
v 2.1 3.4 -1.6
v 2.1 3.6 -1.6
v 2.2 2 -1.6
v 2.2 2.2 -1.6
v 2.2 3.8 -1.6
v 2.2 4.1 -1.6
v 2.2 4.2 -1.6
v 2.2 4.3 -1.6
v 2.3 3.4 -1.6
v 2.3 3.6 -1.6
v 2.3 3.8 -1.6
v 2.3 4.2 -1.6
v 1 3.6 -1.7
v 1 3.7 -1.7
v 1.2 3.6 -1.7
v 1.2 3.7 -1.7
v 1.7 2.9 -1.7
v 1.7 3 -1.7
v 1.7 3.1 -1.7
v 1.7 3.4 -1.7
v 1.7 3.6 -1.7
v 1.7 3.7 -1.7
v 1.8 2.5 -1.7
v 1.8 2.6 -1.7
v 1.9 2.5 -1.7
v 1.9 2.6 -1.7
v 1.9 2.9 -1.7
v 1.9 3 -1.7
v 1.9 3.4 -1.7
v 1.9 3.5 -1.7
v 1.9 3.6 -1.7
v 1.9 4.3 -1.7
v 1.9 4.4 -1.7
v 2.1 2.5 -1.7
v 2.1 2.6 -1.7
v 2.1 2.9 -1.7
v 2.1 3 -1.7
v 2.1 3.4 -1.7
v 2.1 3.5 -1.7
v 2.1 3.6 -1.7
v 2.1 4.3 -1.7
v 2.1 4.4 -1.7
v 2.2 2.5 -1.7
v 2.2 2.6 -1.7
v 2.3 2.9 -1.7
v 2.3 3 -1.7
v 2.3 3.1 -1.7
v 2.3 3.4 -1.7
v 2.3 3.6 -1.7
v 2.3 3.7 -1.7
v 2.8 3.6 -1.7
v 2.8 3.7 -1.7
v 3 3.6 -1.7
v 3 3.7 -1.7
v 0.9 3.6 -1.8
v 0.9 3.7 -1.8
v 1 3.6 -1.8
v 1 3.7 -1.8
v 1.2 3.6 -1.8
v 1.2 3.7 -1.8
v 1.3 3.6 -1.8
v 1.3 3.7 -1.8
v 1.7 3.6 -1.8
v 1.7 3.7 -1.8
v 1.8 2.2 -1.8
v 1.8 2.5 -1.8
v 1.8 2.6 -1.8
v 1.8 2.9 -1.8
v 1.9 2.2 -1.8
v 1.9 2.5 -1.8
v 1.9 2.6 -1.8
v 1.9 2.9 -1.8
v 1.9 3.7 -1.8
v 1.9 3.8 -1.8
v 2.1 2.2 -1.8
v 2.1 2.5 -1.8
v 2.1 2.6 -1.8
v 2.1 2.9 -1.8
v 2.1 3.7 -1.8
v 2.1 3.8 -1.8
v 2.2 2.2 -1.8
v 2.2 2.5 -1.8
v 2.2 2.6 -1.8
v 2.2 2.9 -1.8
v 2.3 3.6 -1.8
v 2.3 3.7 -1.8
v 2.7 3.6 -1.8
v 2.7 3.7 -1.8
v 2.8 3.6 -1.8
v 2.8 3.7 -1.8
v 3 3.6 -1.8
v 3 3.7 -1.8
v 3.1 3.6 -1.8
v 3.1 3.7 -1.8
v 1.9 3.6 -2.1
v 1.9 3.8 -2.1
v 1.9 3.9 -2.1
v 2.1 3.6 -2.1
v 2.1 3.8 -2.1
v 2.1 3.9 -2.1
v 0.9 3.6 -1.9
v 0.9 3.7 -1.9
v 1.2 3.6 -1.9
v 1.2 3.7 -1.9
v 1.3 3.6 -1.9
v 1.3 3.7 -1.9
v 1.7 3.6 -1.9
v 1.7 3.7 -1.9
v 1.8 2 -1.9
v 1.8 2.5 -1.9
v 1.8 2.6 -1.9
v 1.8 2.9 -1.9
v 1.9 2 -1.9
v 1.9 2.5 -1.9
v 1.9 2.6 -1.9
v 1.9 2.9 -1.9
v 1.9 3.7 -1.9
v 1.9 3.8 -1.9
v 1.9 4.3 -1.9
v 1.9 4.4 -1.9
v 2.1 2 -1.9
v 2.1 2.5 -1.9
v 2.1 2.6 -1.9
v 2.1 2.9 -1.9
v 2.1 3.7 -1.9
v 2.1 3.8 -1.9
v 2.1 4.3 -1.9
v 2.1 4.4 -1.9
v 2.2 2 -1.9
v 2.2 2.5 -1.9
v 2.2 2.6 -1.9
v 2.2 2.9 -1.9
v 2.3 3.6 -1.9
v 2.3 3.7 -1.9
v 2.7 3.6 -1.9
v 2.7 3.7 -1.9
v 2.8 3.6 -1.9
v 2.8 3.7 -1.9
v 3.1 3.6 -1.9
v 3.1 3.7 -1.9
v 1.7 2.9 -2
v 1.7 3 -2
v 1.7 3.1 -2
v 1.7 3.4 -2
v 1.7 3.5 -2
v 1.7 3.7 -2
v 1.7 3.8 -2
v 1.7 4.2 -2
v 1.8 2.9 -2
v 1.8 3 -2
v 1.8 3.8 -2
v 1.8 4.2 -2
v 1.8 4.3 -2
v 1.9 3.8 -2
v 1.9 3.9 -2
v 2.1 3.8 -2
v 2.1 3.9 -2
v 2.2 2.9 -2
v 2.2 3 -2
v 2.2 3.8 -2
v 2.2 4.2 -2
v 2.2 4.3 -2
v 2.3 2.9 -2
v 2.3 3 -2
v 2.3 3.1 -2
v 2.3 3.4 -2
v 2.3 3.5 -2
v 2.3 3.7 -2
v 2.3 3.8 -2
v 2.3 4.2 -2
v 1.8 3.8 -2.1
v 1.8 4.2 -2.1
v 1.9 3.8 -2.1
v 1.9 4 -2.1
v 2.1 3.8 -2.1
v 2.1 4 -2.1
v 2.2 3.8 -2.1
v 2.2 4.2 -2.1
v 1.9 3.6 -2.2
v 1.9 4 -2.2
v 2.1 3.6 -2.2
v 2.1 4 -2.2
v 1.8 2 -1.6
v 1.9 2 -1.6
v 2.1 2 -1.6
v 2.2 2 -1.6
v 1.8 2 -1.9
v 1.9 2 -1.9
v 2.1 2 -1.9
v 2.2 2 -1.9
v 1.8 2.5 -1.7
v 1.9 2.5 -1.7
v 2.1 2.5 -1.7
v 2.2 2.5 -1.7
v 1.8 2.5 -1.8
v 1.9 2.5 -1.8
v 2.1 2.5 -1.8
v 2.2 2.5 -1.8
v 1.7 2.9 -1.7
v 1.9 2.9 -1.7
v 2.1 2.9 -1.7
v 2.3 2.9 -1.7
v 1.8 2.9 -1.8
v 1.9 2.9 -1.8
v 2.1 2.9 -1.8
v 2.2 2.9 -1.8
v 1.8 2.9 -1.9
v 1.9 2.9 -1.9
v 2.1 2.9 -1.9
v 2.2 2.9 -1.9
v 1.7 2.9 -2
v 1.8 2.9 -2
v 2.2 2.9 -2
v 2.3 2.9 -2
v 1.7 3.4 -1.6
v 1.9 3.4 -1.6
v 2.1 3.4 -1.6
v 2.3 3.4 -1.6
v 1.7 3.4 -1.7
v 1.9 3.4 -1.7
v 2.1 3.4 -1.7
v 2.3 3.4 -1.7
v 1 3.6 -1.7
v 1.2 3.6 -1.7
v 2.8 3.6 -1.7
v 3 3.6 -1.7
v 0.9 3.6 -1.8
v 1 3.6 -1.8
v 1.2 3.6 -1.8
v 1.3 3.6 -1.8
v 1.7 3.6 -1.8
v 2.3 3.6 -1.8
v 2.7 3.6 -1.8
v 2.8 3.6 -1.8
v 3 3.6 -1.8
v 3.1 3.6 -1.8
v 0.9 3.6 -1.9
v 1.2 3.6 -1.9
v 1.3 3.6 -1.9
v 1.7 3.6 -1.9
v 2.3 3.6 -1.9
v 2.7 3.6 -1.9
v 2.8 3.6 -1.9
v 3.1 3.6 -1.9
v 1.9 3.6 -2.1
v 2.1 3.6 -2.1
v 1.9 3.6 -2.2
v 2.1 3.6 -2.2
v 1.7 3.8 -1.6
v 1.8 3.8 -1.6
v 2.2 3.8 -1.6
v 2.3 3.8 -1.6
v 1.9 3.8 -1.8
v 2.1 3.8 -1.8
v 1.9 3.8 -1.9
v 2.1 3.8 -1.9
v 1.7 3.8 -2
v 1.8 3.8 -2
v 1.9 3.8 -2
v 2.1 3.8 -2
v 2.2 3.8 -2
v 2.3 3.8 -2
v 1.8 3.8 -2.1
v 1.9 3.8 -2.1
v 2.1 3.8 -2.1
v 2.2 3.8 -2.1
v 1.9 3.9 -2
v 2.1 3.9 -2
v 1.9 3.9 -2.1
v 2.1 3.9 -2.1
v 1.8 2.2 -1.6
v 1.9 2.2 -1.6
v 2.1 2.2 -1.6
v 2.2 2.2 -1.6
v 1.8 2.2 -1.8
v 1.9 2.2 -1.8
v 2.1 2.2 -1.8
v 2.2 2.2 -1.8
v 1.8 2.6 -1.7
v 1.9 2.6 -1.7
v 2.1 2.6 -1.7
v 2.2 2.6 -1.7
v 1.8 2.6 -1.8
v 1.9 2.6 -1.8
v 2.1 2.6 -1.8
v 2.2 2.6 -1.8
v 1.7 3.6 -1.6
v 1.9 3.6 -1.6
v 2.1 3.6 -1.6
v 2.3 3.6 -1.6
v 1.7 3.6 -1.7
v 1.9 3.6 -1.7
v 2.1 3.6 -1.7
v 2.3 3.6 -1.7
v 1 3.7 -1.7
v 1.2 3.7 -1.7
v 1.7 3.7 -1.7
v 2.3 3.7 -1.7
v 2.8 3.7 -1.7
v 3 3.7 -1.7
v 0.9 3.7 -1.8
v 1 3.7 -1.8
v 1.2 3.7 -1.8
v 1.3 3.7 -1.8
v 1.7 3.7 -1.8
v 1.9 3.7 -1.8
v 2.1 3.7 -1.8
v 2.3 3.7 -1.8
v 2.7 3.7 -1.8
v 2.8 3.7 -1.8
v 3 3.7 -1.8
v 3.1 3.7 -1.8
v 0.9 3.7 -1.9
v 1.2 3.7 -1.9
v 1.3 3.7 -1.9
v 1.7 3.7 -1.9
v 1.9 3.7 -1.9
v 2.1 3.7 -1.9
v 2.3 3.7 -1.9
v 2.7 3.7 -1.9
v 2.8 3.7 -1.9
v 3.1 3.7 -1.9
v 1.7 3.7 -2
v 2.3 3.7 -2
v 1.9 4 -2.1
v 2.1 4 -2.1
v 1.9 4 -2.2
v 2.1 4 -2.2
v 1.7 4.2 -1.6
v 1.8 4.2 -1.6
v 2.2 4.2 -1.6
v 2.3 4.2 -1.6
v 1.7 4.2 -2
v 1.8 4.2 -2
v 2.2 4.2 -2
v 2.3 4.2 -2
v 1.8 4.2 -2.1
v 2.2 4.2 -2.1
v 1.8 4.3 -1.6
v 2.2 4.3 -1.6
v 1.9 4.3 -1.7
v 2.1 4.3 -1.7
v 1.9 4.3 -1.9
v 2.1 4.3 -1.9
v 1.8 4.3 -2
v 2.2 4.3 -2
v 1.9 4.4 -1.7
v 2.1 4.4 -1.7
v 1.9 4.4 -1.9
v 2.1 4.4 -1.9

# faces
f 3/3/1 2/3/1 1/3/1
f 4/3/1 2/3/1 3/3/1
f 7/3/1 6/3/1 5/3/1
f 8/3/1 6/3/1 7/3/1
f 11/3/1 10/3/1 9/3/1
f 12/3/1 10/3/1 11/3/1
f 13/2/1 12/2/1 11/2/1
f 14/2/1 12/2/1 13/2/1
f 16/3/1 14/3/1 13/3/1
f 17/3/1 14/3/1 16/3/1
f 18/2/1 16/2/1 15/2/1
f 18/2/1 17/2/1 16/2/1
f 19/2/1 17/2/1 18/2/1
f 20/2/1 18/2/1 15/2/1
f 21/3/1 19/3/1 18/3/1
f 21/2/1 18/2/1 20/2/1
f 22/3/1 19/3/1 21/3/1
f 23/3/1 19/3/1 22/3/1
f 24/3/1 22/3/1 21/3/1
f 25/3/1 22/3/1 24/3/1
f 26/3/1 19/3/1 23/3/1
f 27/3/1 19/3/1 26/3/1
f 30/4/1 29/4/1 28/4/1
f 31/4/1 29/4/1 30/4/1
f 34/3/1 33/3/1 32/3/1
f 35/3/1 33/3/1 34/3/1
f 37/3/1 33/3/1 35/3/1
f 38/3/1 33/3/1 37/3/1
f 39/2/1 37/2/1 36/2/1
f 39/2/1 38/2/1 37/2/1
f 40/2/1 38/2/1 39/2/1
f 41/2/1 38/2/1 40/2/1
f 42/3/1 41/3/1 40/3/1
f 43/3/1 41/3/1 42/3/1
f 47/4/1 45/4/1 44/4/1
f 48/4/1 45/4/1 47/4/1
f 49/4/1 47/4/1 46/4/1
f 50/4/1 47/4/1 49/4/1
f 55/3/1 54/3/1 53/3/1
f 56/3/1 54/3/1 55/3/1
f 57/4/1 52/4/1 51/4/1
f 58/4/1 52/4/1 57/4/1
f 59/4/1 52/4/1 58/4/1
f 62/4/1 61/4/1 60/4/1
f 63/4/1 61/4/1 62/4/1
f 66/3/1 65/3/1 64/3/1
f 67/3/1 65/3/1 66/3/1
f 69/3/1 65/3/1 67/3/1
f 70/3/1 65/3/1 69/3/1
f 71/2/1 69/2/1 68/2/1
f 71/2/1 70/2/1 69/2/1
f 72/2/1 70/2/1 71/2/1
f 73/2/1 70/2/1 72/2/1
f 74/3/1 73/3/1 72/3/1
f 75/3/1 73/3/1 74/3/1
f 78/2/1 77/2/1 76/2/1
f 79/2/1 78/2/1 76/2/1
f 80/2/1 78/2/1 79/2/1
f 83/4/1 82/4/1 81/4/1
f 84/4/1 82/4/1 83/4/1
f 87/3/1 86/3/1 85/3/1
f 88/3/1 86/3/1 87/3/1
f 89/3/2 90/3/2 91/3/2
f 91/3/2 90/3/2 92/3/2
f 93/3/2 94/3/2 95/3/2
f 95/3/2 94/3/2 96/3/2
f 96/3/2 94/3/2 98/3/2
f 98/3/2 94/3/2 99/3/2
f 97/2/2 98/2/2 100/2/2
f 98/2/2 99/2/2 100/2/2
f 100/2/2 99/2/2 101/2/2
f 101/2/2 99/2/2 102/2/2
f 101/3/2 102/3/2 103/3/2
f 103/3/2 102/3/2 104/3/2
f 105/2/2 106/2/2 107/2/2
f 105/2/2 107/2/2 108/2/2
f 108/2/2 107/2/2 109/2/2
f 110/4/2 111/4/2 112/4/2
f 112/4/2 111/4/2 113/4/2
f 116/3/2 117/3/2 118/3/2
f 118/3/2 117/3/2 119/3/2
f 114/4/2 115/4/2 120/4/2
f 120/4/2 115/4/2 121/4/2
f 121/4/2 115/4/2 122/4/2
f 123/4/2 124/4/2 125/4/2
f 125/4/2 124/4/2 126/4/2
f 127/3/2 128/3/2 129/3/2
f 129/3/2 128/3/2 130/3/2
f 130/3/2 128/3/2 132/3/2
f 132/3/2 128/3/2 133/3/2
f 131/2/2 132/2/2 134/2/2
f 132/2/2 133/2/2 134/2/2
f 134/2/2 133/2/2 135/2/2
f 135/2/2 133/2/2 136/2/2
f 135/3/2 136/3/2 137/3/2
f 137/3/2 136/3/2 138/3/2
f 139/4/2 140/4/2 142/4/2
f 142/4/2 140/4/2 143/4/2
f 141/4/2 142/4/2 144/4/2
f 144/4/2 142/4/2 145/4/2
f 146/3/2 147/3/2 148/3/2
f 148/3/2 147/3/2 149/3/2
f 148/2/2 149/2/2 150/2/2
f 150/2/2 149/2/2 151/2/2
f 150/3/2 151/3/2 153/3/2
f 153/3/2 151/3/2 154/3/2
f 152/2/2 153/2/2 155/2/2
f 153/2/2 154/2/2 155/2/2
f 155/2/2 154/2/2 156/2/2
f 152/2/2 155/2/2 157/2/2
f 155/3/2 156/3/2 158/3/2
f 157/2/2 155/2/2 158/2/2
f 158/3/2 156/3/2 159/3/2
f 159/3/2 156/3/2 160/3/2
f 158/3/2 159/3/2 161/3/2
f 161/3/2 159/3/2 162/3/2
f 160/3/2 156/3/2 163/3/2
f 163/3/2 156/3/2 164/3/2
f 165/4/2 166/4/2 167/4/2
f 167/4/2 166/4/2 168/4/2
f 169/3/2 170/3/2 171/3/2
f 171/3/2 170/3/2 172/3/2
f 173/3/2 174/3/2 175/3/2
f 175/3/2 174/3/2 176/3/2
f 183/4/3 180/4/3 179/4/3
f 184/4/3 180/4/3 183/4/3
f 185/4/3 180/4/3 184/4/3
f 187/3/3 182/3/3 181/3/3
f 188/3/3 182/3/3 187/3/3
f 189/2/3 178/2/3 177/2/3
f 190/2/3 178/2/3 189/2/3
f 195/3/3 192/3/3 191/3/3
f 196/3/3 192/3/3 195/3/3
f 197/3/3 184/3/3 183/3/3
f 198/1/3 185/1/3 184/1/3
f 198/3/3 184/3/3 197/3/3
f 199/4/3 186/4/3 185/4/3
f 199/1/3 185/1/3 198/1/3
f 200/4/3 186/4/3 199/4/3
f 201/2/3 194/2/3 193/2/3
f 202/2/3 194/2/3 201/2/3
f 203/4/3 198/4/3 197/4/3
f 203/4/3 199/4/3 198/4/3
f 204/4/3 199/4/3 203/4/3
f 207/3/3 206/3/3 205/3/3
f 208/3/3 206/3/3 207/3/3
f 217/2/3 216/2/3 215/2/3
f 218/2/3 216/2/3 217/2/3
f 219/3/3 210/3/3 209/3/3
f 220/2/3 211/2/3 210/2/3
f 220/3/3 210/3/3 219/3/3
f 221/3/3 212/3/3 211/3/3
f 223/3/3 214/3/3 213/3/3
f 228/2/3 220/2/3 219/2/3
f 229/2/3 211/2/3 220/2/3
f 229/2/3 220/2/3 228/2/3
f 230/2/3 222/2/3 221/2/3
f 230/3/3 221/3/3 211/3/3
f 231/3/3 223/3/3 222/3/3
f 231/2/3 222/2/3 230/2/3
f 232/3/3 214/3/3 223/3/3
f 232/3/3 223/3/3 231/3/3
f 233/4/3 225/4/3 224/4/3
f 234/4/3 225/4/3 233/4/3
f 235/2/3 227/2/3 226/2/3
f 236/2/3 227/2/3 235/2/3
f 237/3/3 229/3/3 228/3/3
f 238/2/3 211/2/3 229/2/3
f 238/3/3 229/3/3 237/3/3
f 239/3/3 230/3/3 211/3/3
f 239/2/3 211/2/3 238/2/3
f 240/3/3 230/3/3 239/3/3
f 241/3/3 214/3/3 232/3/3
f 242/3/3 214/3/3 241/3/3
f 245/3/3 244/3/3 243/3/3
f 246/3/3 244/3/3 245/3/3
f 249/3/3 248/3/3 247/3/3
f 250/3/3 248/3/3 249/3/3
f 253/2/3 252/2/3 251/2/3
f 254/2/3 252/2/3 253/2/3
f 255/3/3 254/3/3 253/3/3
f 256/3/3 254/3/3 255/3/3
f 261/3/3 258/3/3 257/3/3
f 262/3/3 258/3/3 261/3/3
f 263/3/3 260/3/3 259/3/3
f 264/3/3 260/3/3 263/3/3
f 271/3/3 266/3/3 265/3/3
f 272/3/3 266/3/3 271/3/3
f 273/3/3 268/3/3 267/3/3
f 274/3/3 268/3/3 273/3/3
f 275/3/3 270/3/3 269/3/3
f 276/3/3 270/3/3 275/3/3
f 279/3/3 278/3/3 277/3/3
f 280/3/3 278/3/3 279/3/3
f 281/2/3 280/2/3 279/2/3
f 282/2/3 280/2/3 281/2/3
f 285/3/3 284/3/3 283/3/3
f 286/3/3 284/3/3 285/3/3
f 290/4/3 288/4/3 287/4/3
f 290/4/3 289/4/3 288/4/3
f 291/4/3 289/4/3 290/4/3
f 292/4/3 289/4/3 291/4/3
f 293/3/4 294/3/4 295/3/4
f 295/3/4 294/3/4 296/3/4
f 295/2/4 296/2/4 297/2/4
f 297/2/4 296/2/4 298/2/4
f 297/3/4 298/3/4 299/3/4
f 299/3/4 298/3/4 300/3/4
f 301/3/4 302/3/4 305/3/4
f 302/2/4 303/2/4 306/2/4
f 305/3/4 302/3/4 306/3/4
f 303/3/4 304/3/4 307/3/4
f 306/2/4 303/2/4 307/2/4
f 307/3/4 304/3/4 308/3/4
f 309/3/4 310/3/4 317/3/4
f 317/3/4 310/3/4 318/3/4
f 311/4/4 312/4/4 319/4/4
f 319/4/4 312/4/4 320/4/4
f 313/3/4 314/3/4 321/3/4
f 314/2/4 315/2/4 322/2/4
f 321/3/4 314/3/4 322/3/4
f 315/3/4 316/3/4 323/3/4
f 322/2/4 315/2/4 323/2/4
f 323/3/4 316/3/4 324/3/4
f 325/3/4 326/3/4 327/3/4
f 327/3/4 326/3/4 328/3/4
f 327/2/4 328/2/4 329/2/4
f 329/2/4 328/2/4 330/2/4
f 329/3/4 330/3/4 331/3/4
f 331/3/4 330/3/4 332/3/4
f 333/3/4 334/3/4 341/3/4
f 334/2/4 335/2/4 342/2/4
f 341/3/4 334/3/4 342/3/4
f 339/4/4 340/4/4 343/4/4
f 343/4/4 340/4/4 344/4/4
f 346/3/4 347/3/4 348/3/4
f 348/3/4 347/3/4 349/3/4
f 341/2/4 342/2/4 350/2/4
f 342/2/4 335/2/4 351/2/4
f 350/2/4 342/2/4 351/2/4
f 344/4/4 345/4/4 353/4/4
f 353/4/4 345/4/4 354/4/4
f 350/3/4 351/3/4 355/3/4
f 351/2/4 335/2/4 356/2/4
f 355/3/4 351/3/4 356/3/4
f 335/3/4 336/3/4 357/3/4
f 356/2/4 335/2/4 357/2/4
f 336/2/4 337/2/4 358/2/4
f 357/3/4 336/3/4 358/3/4
f 337/3/4 338/3/4 359/3/4
f 358/2/4 337/2/4 359/2/4
f 359/3/4 338/3/4 360/3/4
f 352/4/4 353/4/4 361/4/4
f 361/4/4 353/4/4 362/4/4
f 363/4/4 364/4/4 365/4/4
f 365/4/4 364/4/4 366/4/4
f 366/4/4 364/4/4 368/4/4
f 367/4/4 368/4/4 369/4/4
f 368/4/4 364/4/4 370/4/4
f 369/4/4 368/4/4 370/4/4
f 371/4/4 372/4/4 373/4/4
f 373/4/4 372/4/4 374/4/4
f 379/3/5 376/3/5 375/3/5
f 380/3/5 376/3/5 379/3/5
f 381/3/5 378/3/5 377/3/5
f 382/3/5 378/3/5 381/3/5
f 387/2/5 384/2/5 383/2/5
f 388/2/5 384/2/5 387/2/5
f 389/2/5 386/2/5 385/2/5
f 390/2/5 386/2/5 389/2/5
f 395/3/5 392/3/5 391/3/5
f 396/2/5 393/2/5 392/2/5
f 396/3/5 392/3/5 395/3/5
f 397/3/5 394/3/5 393/3/5
f 397/2/5 393/2/5 396/2/5
f 398/3/5 394/3/5 397/3/5
f 399/3/5 395/3/5 391/3/5
f 400/2/5 397/2/5 396/2/5
f 401/2/5 397/2/5 400/2/5
f 402/3/5 394/3/5 398/3/5
f 403/3/5 399/3/5 391/3/5
f 404/2/5 401/2/5 400/2/5
f 404/3/5 399/3/5 403/3/5
f 404/2/5 402/2/5 401/2/5
f 404/2/5 400/2/5 399/2/5
f 405/3/5 394/3/5 402/3/5
f 405/2/5 402/2/5 404/2/5
f 406/3/5 394/3/5 405/3/5
f 411/2/5 408/2/5 407/2/5
f 412/2/5 408/2/5 411/2/5
f 413/2/5 410/2/5 409/2/5
f 414/2/5 410/2/5 413/2/5
f 420/3/5 416/3/5 415/3/5
f 421/3/5 416/3/5 420/3/5
f 426/3/5 418/3/5 417/3/5
f 427/3/5 418/3/5 426/3/5
f 429/3/5 420/3/5 419/3/5
f 429/3/5 421/3/5 420/3/5
f 430/2/5 422/2/5 421/2/5
f 430/3/5 421/3/5 429/3/5
f 431/3/5 423/3/5 422/3/5
f 431/2/5 422/2/5 430/2/5
f 432/3/5 423/3/5 431/3/5
f 433/3/5 425/3/5 424/3/5
f 434/2/5 426/2/5 425/2/5
f 434/3/5 425/3/5 433/3/5
f 435/3/5 428/3/5 427/3/5
f 435/2/5 426/2/5 434/2/5
f 435/3/5 427/3/5 426/3/5
f 436/3/5 428/3/5 435/3/5
f 439/4/5 438/4/5 437/4/5
f 440/4/5 438/4/5 439/4/5
f 445/3/5 443/3/5 442/3/5
f 446/3/5 443/3/5 445/3/5
f 447/3/5 445/3/5 442/3/5
f 448/3/5 443/3/5 446/3/5
f 449/4/5 442/4/5 441/4/5
f 450/3/5 448/3/5 447/3/5
f 450/4/5 442/4/5 449/4/5
f 450/3/5 447/3/5 442/3/5
f 451/3/5 448/3/5 450/3/5
f 452/3/5 443/3/5 448/3/5
f 452/3/5 448/3/5 451/3/5
f 453/4/5 444/4/5 443/4/5
f 453/3/5 443/3/5 452/3/5
f 454/4/5 444/4/5 453/4/5
f 455/4/5 451/4/5 450/4/5
f 456/4/5 451/4/5 455/4/5
f 457/4/5 453/4/5 452/4/5
f 458/4/5 453/4/5 457/4/5
f 461/4/5 460/4/5 459/4/5
f 462/4/5 460/4/5 461/4/5
f 463/3/6 464/3/6 467/3/6
f 467/3/6 464/3/6 468/3/6
f 465/3/6 466/3/6 469/3/6
f 469/3/6 466/3/6 470/3/6
f 471/2/6 472/2/6 475/2/6
f 475/2/6 472/2/6 476/2/6
f 473/2/6 474/2/6 477/2/6
f 477/2/6 474/2/6 478/2/6
f 479/2/6 480/2/6 483/2/6
f 483/2/6 480/2/6 484/2/6
f 481/2/6 482/2/6 485/2/6
f 485/2/6 482/2/6 486/2/6
f 487/3/6 488/3/6 494/3/6
f 494/3/6 488/3/6 495/3/6
f 489/3/6 490/3/6 497/3/6
f 497/3/6 490/3/6 498/3/6
f 498/3/6 490/3/6 499/3/6
f 499/3/6 490/3/6 500/3/6
f 491/3/6 492/3/6 502/3/6
f 502/3/6 492/3/6 503/3/6
f 493/3/6 494/3/6 505/3/6
f 494/3/6 495/3/6 505/3/6
f 495/2/6 496/2/6 506/2/6
f 505/3/6 495/3/6 506/3/6
f 496/3/6 497/3/6 507/3/6
f 506/2/6 496/2/6 507/2/6
f 497/3/6 498/3/6 507/3/6
f 507/3/6 498/3/6 508/3/6
f 508/3/6 498/3/6 509/3/6
f 500/3/6 501/3/6 510/3/6
f 499/3/6 500/3/6 510/3/6
f 510/3/6 501/3/6 511/3/6
f 501/2/6 502/2/6 512/2/6
f 511/3/6 501/3/6 512/3/6
f 503/3/6 504/3/6 513/3/6
f 512/2/6 502/2/6 513/2/6
f 502/3/6 503/3/6 513/3/6
f 513/3/6 504/3/6 514/3/6
f 508/3/6 509/3/6 515/3/6
f 509/3/6 510/3/6 515/3/6
f 510/3/6 511/3/6 515/3/6
f 515/3/6 511/3/6 516/3/6
f 517/4/6 518/4/6 519/4/6
f 519/4/6 518/4/6 520/4/6
f 521/4/6 522/4/6 525/4/6
f 525/4/6 522/4/6 526/4/6
f 523/4/6 524/4/6 527/4/6
f 527/4/6 524/4/6 528/4/6
f 526/4/6 527/4/6 529/4/6
f 529/4/6 527/4/6 530/4/6
f 531/4/6 532/4/6 533/4/6
f 533/4/6 532/4/6 534/4/6
f 531/4/6 533/4/6 535/4/6
f 534/4/6 532/4/6 536/4/6
f 531/4/6 535/4/6 537/4/6
f 535/4/6 536/4/6 537/4/6
f 536/4/6 532/4/6 538/4/6
f 537/4/6 536/4/6 538/4/6
f 539/4/6 540/4/6 541/4/6
f 541/4/6 540/4/6 542/4/6
